<svg width="1237" height="80" viewBox="0 0 1237 80" fill="none" xmlns="http://www.w3.org/2000/svg">
<path d="M969.03 19.0054L1237 19.0054L1237 79.0967L879.41 79.0951L879.195 79.0966L371.271 79.0967C371.157 79.0967 371.044 79.0954 370.931 79.0928L-4.88399e-10 79.0912L0.000116817 19.0055L280.71 19.0055C283.94 19.0055 287.085 20.0485 289.675 21.9793L362.306 76.1228C364.805 77.9859 367.82 79.0224 370.931 79.0928L879.195 79.0966L879.41 79.0951C882.59 79.0493 885.674 77.9943 888.217 76.0794L960.007 22.0227C962.607 20.0645 965.774 19.0054 969.03 19.0054Z" fill="#062927"/>
<g clip-path="url(#clip0_1_6040)">
<path d="M1237 0V19.0001L1218 19C1228.38 18.7196 1236.72 10.375 1237 0Z" fill="#062927"/>
</g>
<g clip-path="url(#clip1_1_6040)">
<path d="M0 0C0.280407 10.375 8.62496 18.7196 19 19H0V0Z" fill="#062927"/>
</g>
<defs>
<clipPath id="clip0_1_6040">
<rect width="19" height="19" fill="white" transform="translate(1218)"/>
</clipPath>
<clipPath id="clip1_1_6040">
<rect width="19" height="19" fill="white"/>
</clipPath>
</defs>
</svg>
