<svg width="619" height="49" viewBox="0 0 619 49" fill="none" xmlns="http://www.w3.org/2000/svg">
<path d="M494.079 19L619 18.9999L619 49L437.61 48.9992L437.456 49L188.262 49C188.182 49 188.102 48.9994 188.023 48.9981L-2.43858e-10 48.9973L5.84125e-05 19L131.37 19C138.895 19 146.219 21.4251 152.257 25.9157L179.31 46.0361C181.834 47.913 184.882 48.948 188.023 48.9981L437.456 49L437.61 48.9992C440.805 48.9665 443.908 47.9139 446.466 45.9928L473.056 26.0166C479.119 21.4623 486.496 19 494.079 19Z" fill="#062927"/>
<g clip-path="url(#clip0_436_1298)">
<path d="M619 0V19.0001L600 19C610.375 18.7196 618.72 10.375 619 0Z" fill="#062927"/>
</g>
<g clip-path="url(#clip1_436_1298)">
<path d="M0 0C0.280407 10.375 8.62496 18.7196 19 19H0V0Z" fill="#062927"/>
</g>
<defs>
<clipPath id="clip0_436_1298">
<rect width="19" height="19" fill="white" transform="translate(600)"/>
</clipPath>
<clipPath id="clip1_436_1298">
<rect width="19" height="19" fill="white"/>
</clipPath>
</defs>
</svg>
