<svg width="390" height="110" viewBox="0 0 390 110" fill="none" xmlns="http://www.w3.org/2000/svg">
<path d="M513 94C513 102.837 505.837 110 497 110L-124 110C-132.837 110 -140 102.837 -140 94.0001L-140 50.6129C-140 41.7764 -132.837 34.613 -124 34.613L25.7978 34.6129C29.1535 34.6129 32.4242 33.5579 35.1474 31.597L74.8244 3.02634C77.5564 1.05905 80.8394 0.00366937 84.206 0.0104211L307.049 0.457156C310.484 0.464045 313.826 1.57635 316.58 3.62956L353.884 31.4405C356.647 33.5002 360.001 34.6129 363.447 34.6129L497 34.6129C505.837 34.6129 513 41.7763 513 50.6129L513 94Z" fill="#1F5754"/>
</svg>
