<svg width="143" height="25" viewBox="0 0 143 25" fill="none" xmlns="http://www.w3.org/2000/svg">
<g clip-path="url(#clip0_62_117)">
<path d="M31.5393 24.32H24.8281L34.1053 0.898438H40.2244L49.699 24.32L43.0865 24.2208L37.1648 8.73871L34.7962 15.4873H37.1648L38.5466 20.8465H32.6249L31.5393 24.32Z" fill="white"/>
<path d="M137.493 17.1744C137.493 17.1744 142.23 15.3881 142.23 9.83039C142.23 4.27273 138.48 0.898438 135.124 0.898438C131.769 0.898438 121.899 0.898438 121.899 0.898438V24.32H127.821V9.53266V6.4561H130.881H133.249H133.545V6.47595C135.105 6.63474 136.309 7.94476 136.309 9.53266C136.309 11.1206 135.105 12.4504 133.545 12.5894V12.6092H133.249H130.881H130.387L135.322 24.32H142.625L137.493 17.1744Z" fill="white"/>
<path d="M96.8828 0.898316V24.3199H115.042V18.3652L103.101 18.4645V15.4872H112.773V9.92951H103.101V6.75371H115.141V0.99756V0.799072L96.8828 0.898316Z" fill="white"/>
<path d="M60.752 0.898438H54.4355V24.32H60.752V0.898438Z" fill="white"/>
<path d="M0.824426 1.51379H1.29816C2.58118 1.51379 6.84475 1.41455 8.42385 1.41455C18.0564 1.41455 21.9449 6.55539 21.9449 12.4902C21.9449 18.7425 17.326 23.9231 8.14751 23.9231C6.86449 23.9231 3.70629 23.8635 1.39685 23.8635H0.804688V1.51379H0.824426ZM6.33154 6.29735V19.08C7.06187 19.1395 7.5356 19.1395 8.32515 19.1395C13.0822 19.1395 16.1022 16.7378 16.1022 12.4902C16.1022 8.36163 12.8256 6.19811 8.36463 6.19811C7.77247 6.19811 7.0224 6.19811 6.33154 6.29735Z" fill="white"/>
<path d="M8.14669 24.5188C7.594 24.5188 6.7255 24.4989 5.69908 24.4989C4.29763 24.4791 2.71853 24.4592 1.41577 24.4592H0.231445V0.91858H1.29734C1.8895 0.91858 3.15278 0.89873 4.49502 0.878881C6.0149 0.859033 7.57426 0.819336 8.42303 0.819336C13.1011 0.819336 16.733 1.99041 19.2004 4.29287C21.3914 6.3373 22.5362 9.15583 22.5362 12.4904C22.5362 15.8449 21.2335 18.8817 18.8846 21.0056C16.3383 23.308 12.6274 24.5188 8.14669 24.5188ZM1.41577 23.2683C2.73827 23.2683 4.31737 23.2882 5.71882 23.308C6.74524 23.3279 7.61374 23.3279 8.16643 23.3279C12.351 23.3279 15.7856 22.2163 18.1148 20.1124C20.2465 18.187 21.3717 15.5471 21.3717 12.4904C21.3717 9.49326 20.3452 6.97246 18.4108 5.16622C16.1606 3.0821 12.805 2.01026 8.44277 2.01026C7.61374 2.01026 6.05438 2.03011 4.53449 2.06981C3.27121 2.08966 2.06715 2.10951 1.41577 2.10951V23.2683ZM8.32434 19.7352C7.51505 19.7352 7.02158 19.7352 6.27151 19.6757L5.73856 19.636V5.80138L6.25177 5.72199C6.9821 5.62274 7.77165 5.62274 8.36381 5.62274C13.4959 5.62274 16.6936 8.26263 16.6936 12.5103C16.6936 16.9564 13.4762 19.7352 8.32434 19.7352ZM6.92289 18.5046C7.35714 18.5245 7.77165 18.5245 8.32434 18.5245C12.884 18.5245 15.5092 16.3212 15.5092 12.4706C15.5092 8.89779 12.8445 6.77397 8.36381 6.77397C7.92956 6.77397 7.41635 6.77397 6.92289 6.81367V18.5046Z" fill="white"/>
<path d="M90.0263 10.6244V24.3201H85.289V22.3352C81.3412 26.2256 75.0051 25.3324 70.9784 21.839C68.8663 20.0129 67.5043 17.3929 67.0503 14.5346C65.9647 7.66696 70.8994 1.19626 77.7882 0.481702C81.0254 0.144273 84.9534 1.13671 89.138 5.34466L84.4007 8.71895C84.4007 8.71895 82.0321 5.74163 78.4791 6.33709C74.9261 6.93256 72.3601 10.3069 73.347 14.0781C74.3339 17.8494 79.466 21.2237 84.2033 16.2615V15.666H78.4791V10.5053L90.0263 10.6244Z" fill="white"/>
</g>
<defs>
<clipPath id="clip0_62_117">
<rect width="142.857" height="25" fill="white"/>
</clipPath>
</defs>
</svg>
