<svg width="272" height="36" viewBox="0 0 272 36" fill="none" xmlns="http://www.w3.org/2000/svg">
<g filter="url(#filter0_b_431_1297)">
<rect x="39" width="233" height="36" rx="7" fill="#459D98"/>
<path d="M71.49 24.904V21.88H71.938C72.1993 21.88 72.428 21.7773 72.624 21.572C72.82 21.3573 72.988 21.0213 73.128 20.564C73.268 20.0973 73.38 19.4767 73.464 18.702C73.548 17.9273 73.6087 16.9707 73.646 15.832L73.716 13.06H79.876V21.88H81.108V24.904H79.988V23H72.61V24.904H71.49ZM73.618 21.88H78.616V14.18H74.878L74.836 15.986C74.808 17.162 74.7473 18.1467 74.654 18.94C74.5607 19.7333 74.43 20.368 74.262 20.844C74.094 21.32 73.8793 21.6653 73.618 21.88ZM85.7817 23.14C85.231 23.14 84.7317 23.042 84.2837 22.846C83.8357 22.6407 83.4484 22.3653 83.1217 22.02C82.795 21.6653 82.543 21.2593 82.3657 20.802C82.1884 20.3447 82.0997 19.864 82.0997 19.36C82.0997 18.8467 82.1884 18.3613 82.3657 17.904C82.543 17.4467 82.795 17.0453 83.1217 16.7C83.4484 16.3453 83.8357 16.07 84.2837 15.874C84.741 15.6687 85.2404 15.566 85.7817 15.566C86.3324 15.566 86.8317 15.6687 87.2797 15.874C87.7277 16.07 88.115 16.3453 88.4417 16.7C88.7777 17.0453 89.0344 17.4467 89.2117 17.904C89.389 18.3613 89.4777 18.8467 89.4777 19.36C89.4777 19.864 89.389 20.3447 89.2117 20.802C89.0344 21.2593 88.7824 21.6653 88.4557 22.02C88.129 22.3653 87.737 22.6407 87.2797 22.846C86.8317 23.042 86.3324 23.14 85.7817 23.14ZM83.3597 19.374C83.3597 19.878 83.467 20.3353 83.6817 20.746C83.9057 21.1567 84.1997 21.4833 84.5637 21.726C84.9277 21.9593 85.3337 22.076 85.7817 22.076C86.2297 22.076 86.6357 21.9547 86.9997 21.712C87.373 21.4693 87.667 21.1427 87.8817 20.732C88.1057 20.312 88.2177 19.85 88.2177 19.346C88.2177 18.842 88.1057 18.3847 87.8817 17.974C87.667 17.5633 87.373 17.2367 86.9997 16.994C86.6357 16.7513 86.2297 16.63 85.7817 16.63C85.3337 16.63 84.9277 16.756 84.5637 17.008C84.1997 17.2507 83.9057 17.5773 83.6817 17.988C83.467 18.3987 83.3597 18.8607 83.3597 19.374ZM94.4146 23.14C93.2106 23.14 92.3006 22.776 91.6846 22.048C91.0686 21.32 90.7606 20.2933 90.7606 18.968C90.7606 18.0627 90.8352 17.302 90.9846 16.686C91.1339 16.0607 91.3579 15.5473 91.6566 15.146C91.9552 14.7353 92.3239 14.404 92.7626 14.152C93.2012 13.8907 93.7052 13.676 94.2746 13.508L97.3686 12.57L97.4386 13.634L94.4286 14.544C93.9152 14.712 93.4859 14.9267 93.1406 15.188C92.7952 15.4493 92.5246 15.7853 92.3286 16.196C92.1326 16.6067 92.0019 17.134 91.9366 17.778C92.1792 17.2833 92.5432 16.9007 93.0286 16.63C93.5139 16.35 94.0786 16.21 94.7226 16.21C95.4132 16.21 96.0059 16.3547 96.5006 16.644C97.0046 16.924 97.3872 17.3207 97.6486 17.834C97.9192 18.338 98.0546 18.9213 98.0546 19.584C98.0546 20.2933 97.9146 20.914 97.6346 21.446C97.3546 21.978 96.9439 22.3933 96.4026 22.692C95.8612 22.9907 95.1986 23.14 94.4146 23.14ZM94.4146 22.076C95.1706 22.076 95.7539 21.8567 96.1646 21.418C96.5846 20.97 96.7946 20.3773 96.7946 19.64C96.7946 18.9213 96.5892 18.338 96.1786 17.89C95.7679 17.442 95.1799 17.218 94.4146 17.218C93.9666 17.218 93.5606 17.3113 93.1966 17.498C92.8419 17.6847 92.5572 17.96 92.3426 18.324C92.1372 18.6787 92.0346 19.1173 92.0346 19.64C92.0346 20.1067 92.1232 20.5267 92.3006 20.9C92.4872 21.264 92.7579 21.5533 93.1126 21.768C93.4672 21.9733 93.9012 22.076 94.4146 22.076ZM98.9825 20.886C98.9825 20.4193 99.1132 20.018 99.3745 19.682C99.6452 19.3367 100.014 19.0707 100.481 18.884C100.947 18.6973 101.489 18.604 102.105 18.604C102.431 18.604 102.777 18.632 103.141 18.688C103.505 18.7347 103.827 18.8093 104.107 18.912V18.38C104.107 17.82 103.939 17.3813 103.603 17.064C103.267 16.7373 102.791 16.574 102.175 16.574C101.773 16.574 101.386 16.6487 101.013 16.798C100.649 16.938 100.261 17.1433 99.8505 17.414L99.4025 16.546C99.8785 16.2193 100.355 15.9767 100.831 15.818C101.307 15.65 101.801 15.566 102.315 15.566C103.248 15.566 103.985 15.8273 104.527 16.35C105.068 16.8633 105.339 17.582 105.339 18.506V21.6C105.339 21.7493 105.367 21.8613 105.423 21.936C105.488 22.0013 105.591 22.0387 105.731 22.048V23C105.609 23.0187 105.502 23.0327 105.409 23.042C105.325 23.0513 105.255 23.056 105.199 23.056C104.909 23.056 104.69 22.9767 104.541 22.818C104.401 22.6593 104.321 22.4913 104.303 22.314L104.275 21.852C103.957 22.2627 103.542 22.58 103.029 22.804C102.515 23.028 102.007 23.14 101.503 23.14C101.017 23.14 100.583 23.042 100.201 22.846C99.8178 22.6407 99.5192 22.37 99.3045 22.034C99.0898 21.6887 98.9825 21.306 98.9825 20.886ZM103.743 21.404C103.855 21.2733 103.943 21.1427 104.009 21.012C104.074 20.872 104.107 20.7553 104.107 20.662V19.752C103.817 19.64 103.514 19.556 103.197 19.5C102.879 19.4347 102.567 19.402 102.258 19.402C101.633 19.402 101.125 19.528 100.733 19.78C100.35 20.0227 100.159 20.3587 100.159 20.788C100.159 21.0213 100.219 21.25 100.341 21.474C100.471 21.6887 100.658 21.866 100.901 22.006C101.153 22.146 101.461 22.216 101.825 22.216C102.207 22.216 102.571 22.1413 102.917 21.992C103.262 21.8333 103.537 21.6373 103.743 21.404ZM107.294 23V15.692H111.074C111.513 15.692 111.877 15.7807 112.166 15.958C112.456 16.126 112.67 16.3453 112.81 16.616C112.96 16.8867 113.034 17.176 113.034 17.484C113.034 17.876 112.941 18.2307 112.754 18.548C112.568 18.856 112.297 19.0893 111.942 19.248C112.362 19.3693 112.703 19.5887 112.964 19.906C113.226 20.214 113.356 20.5967 113.356 21.054C113.356 21.4647 113.258 21.8147 113.062 22.104C112.866 22.3933 112.591 22.6173 112.236 22.776C111.882 22.9253 111.471 23 111.004 23H107.294ZM108.47 22.132H110.976C111.2 22.132 111.401 22.076 111.578 21.964C111.765 21.852 111.91 21.7027 112.012 21.516C112.115 21.3293 112.166 21.1333 112.166 20.928C112.166 20.704 112.115 20.5033 112.012 20.326C111.919 20.1393 111.784 19.9947 111.606 19.892C111.438 19.78 111.242 19.724 111.018 19.724H108.47V22.132ZM108.47 18.912H110.752C110.976 18.912 111.172 18.856 111.34 18.744C111.508 18.6227 111.639 18.4687 111.732 18.282C111.826 18.0953 111.872 17.8993 111.872 17.694C111.872 17.386 111.77 17.12 111.564 16.896C111.368 16.672 111.112 16.56 110.794 16.56H108.47V18.912ZM114.91 23V15.706H116.142V21.348L120.23 15.692H121.35V23H120.118V17.47L116.086 23H114.91ZM125.096 23V16.784H122.576V15.692H128.848V16.784H126.328V23H125.096ZM130.072 23V15.692H131.304V18.184H133.124C133.982 18.184 134.631 18.4033 135.07 18.842C135.518 19.2713 135.742 19.836 135.742 20.536C135.742 21.0027 135.644 21.4227 135.448 21.796C135.261 22.1693 134.981 22.4633 134.608 22.678C134.234 22.8927 133.768 23 133.208 23H130.072ZM131.304 22.034H133.04C133.385 22.034 133.66 21.9687 133.866 21.838C134.08 21.698 134.239 21.516 134.342 21.292C134.444 21.068 134.496 20.8253 134.496 20.564C134.496 20.312 134.449 20.0787 134.356 19.864C134.262 19.6493 134.108 19.4767 133.894 19.346C133.679 19.2153 133.385 19.15 133.012 19.15H131.304V22.034ZM140.613 23V15.692H141.845V18.716H145.653V15.692H146.885V23H145.653V19.808H141.845V23H140.613ZM148.297 20.886C148.297 20.4193 148.428 20.018 148.689 19.682C148.96 19.3367 149.328 19.0707 149.795 18.884C150.262 18.6973 150.803 18.604 151.419 18.604C151.746 18.604 152.091 18.632 152.455 18.688C152.819 18.7347 153.141 18.8093 153.421 18.912V18.38C153.421 17.82 153.253 17.3813 152.917 17.064C152.581 16.7373 152.105 16.574 151.489 16.574C151.088 16.574 150.7 16.6487 150.327 16.798C149.963 16.938 149.576 17.1433 149.165 17.414L148.717 16.546C149.193 16.2193 149.669 15.9767 150.145 15.818C150.621 15.65 151.116 15.566 151.629 15.566C152.562 15.566 153.3 15.8273 153.841 16.35C154.382 16.8633 154.653 17.582 154.653 18.506V21.6C154.653 21.7493 154.681 21.8613 154.737 21.936C154.802 22.0013 154.905 22.0387 155.045 22.048V23C154.924 23.0187 154.816 23.0327 154.723 23.042C154.639 23.0513 154.569 23.056 154.513 23.056C154.224 23.056 154.004 22.9767 153.855 22.818C153.715 22.6593 153.636 22.4913 153.617 22.314L153.589 21.852C153.272 22.2627 152.856 22.58 152.343 22.804C151.83 23.028 151.321 23.14 150.817 23.14C150.332 23.14 149.898 23.042 149.515 22.846C149.132 22.6407 148.834 22.37 148.619 22.034C148.404 21.6887 148.297 21.306 148.297 20.886ZM153.057 21.404C153.169 21.2733 153.258 21.1427 153.323 21.012C153.388 20.872 153.421 20.7553 153.421 20.662V19.752C153.132 19.64 152.828 19.556 152.511 19.5C152.194 19.4347 151.881 19.402 151.573 19.402C150.948 19.402 150.439 19.528 150.047 19.78C149.664 20.0227 149.473 20.3587 149.473 20.788C149.473 21.0213 149.534 21.25 149.655 21.474C149.786 21.6887 149.972 21.866 150.215 22.006C150.467 22.146 150.775 22.216 151.139 22.216C151.522 22.216 151.886 22.1413 152.231 21.992C152.576 21.8333 152.852 21.6373 153.057 21.404ZM159.857 23.14C159.306 23.14 158.802 23.042 158.345 22.846C157.897 22.6407 157.505 22.3607 157.169 22.006C156.842 21.6513 156.586 21.2453 156.399 20.788C156.222 20.3307 156.133 19.8453 156.133 19.332C156.133 18.6413 156.287 18.0113 156.595 17.442C156.903 16.8727 157.337 16.42 157.897 16.084C158.457 15.7387 159.106 15.566 159.843 15.566C160.562 15.566 161.187 15.7293 161.719 16.056C162.26 16.3733 162.662 16.8027 162.923 17.344L161.719 17.722C161.532 17.3767 161.271 17.1107 160.935 16.924C160.599 16.728 160.226 16.63 159.815 16.63C159.367 16.63 158.956 16.7467 158.583 16.98C158.219 17.2133 157.93 17.5353 157.715 17.946C157.5 18.3473 157.393 18.8093 157.393 19.332C157.393 19.8453 157.5 20.312 157.715 20.732C157.939 21.1427 158.233 21.4693 158.597 21.712C158.97 21.9547 159.381 22.076 159.829 22.076C160.118 22.076 160.394 22.0247 160.655 21.922C160.926 21.8193 161.159 21.684 161.355 21.516C161.56 21.3387 161.7 21.1473 161.775 20.942L162.979 21.306C162.83 21.6607 162.601 21.978 162.293 22.258C161.994 22.5287 161.635 22.7433 161.215 22.902C160.804 23.0607 160.352 23.14 159.857 23.14ZM167.902 23V15.692H171.682C172.121 15.692 172.485 15.7807 172.774 15.958C173.063 16.126 173.278 16.3453 173.418 16.616C173.567 16.8867 173.642 17.176 173.642 17.484C173.642 17.876 173.549 18.2307 173.362 18.548C173.175 18.856 172.905 19.0893 172.55 19.248C172.97 19.3693 173.311 19.5887 173.572 19.906C173.833 20.214 173.964 20.5967 173.964 21.054C173.964 21.4647 173.866 21.8147 173.67 22.104C173.474 22.3933 173.199 22.6173 172.844 22.776C172.489 22.9253 172.079 23 171.612 23H167.902ZM169.078 22.132H171.584C171.808 22.132 172.009 22.076 172.186 21.964C172.373 21.852 172.517 21.7027 172.62 21.516C172.723 21.3293 172.774 21.1333 172.774 20.928C172.774 20.704 172.723 20.5033 172.62 20.326C172.527 20.1393 172.391 19.9947 172.214 19.892C172.046 19.78 171.85 19.724 171.626 19.724H169.078V22.132ZM169.078 18.912H171.36C171.584 18.912 171.78 18.856 171.948 18.744C172.116 18.6227 172.247 18.4687 172.34 18.282C172.433 18.0953 172.48 17.8993 172.48 17.694C172.48 17.386 172.377 17.12 172.172 16.896C171.976 16.672 171.719 16.56 171.402 16.56H169.078V18.912ZM179.058 23V15.692H180.29V18.702H181.102L183.398 15.692H184.798L182.068 19.234L185.12 23H183.692L181.102 19.836H180.29V23H179.058ZM189.141 23.14C188.59 23.14 188.091 23.042 187.643 22.846C187.195 22.6407 186.808 22.3653 186.481 22.02C186.154 21.6653 185.902 21.2593 185.725 20.802C185.548 20.3447 185.459 19.864 185.459 19.36C185.459 18.8467 185.548 18.3613 185.725 17.904C185.902 17.4467 186.154 17.0453 186.481 16.7C186.808 16.3453 187.195 16.07 187.643 15.874C188.1 15.6687 188.6 15.566 189.141 15.566C189.692 15.566 190.191 15.6687 190.639 15.874C191.087 16.07 191.474 16.3453 191.801 16.7C192.137 17.0453 192.394 17.4467 192.571 17.904C192.748 18.3613 192.837 18.8467 192.837 19.36C192.837 19.864 192.748 20.3447 192.571 20.802C192.394 21.2593 192.142 21.6653 191.815 22.02C191.488 22.3653 191.096 22.6407 190.639 22.846C190.191 23.042 189.692 23.14 189.141 23.14ZM186.719 19.374C186.719 19.878 186.826 20.3353 187.041 20.746C187.265 21.1567 187.559 21.4833 187.923 21.726C188.287 21.9593 188.693 22.076 189.141 22.076C189.589 22.076 189.995 21.9547 190.359 21.712C190.732 21.4693 191.026 21.1427 191.241 20.732C191.465 20.312 191.577 19.85 191.577 19.346C191.577 18.842 191.465 18.3847 191.241 17.974C191.026 17.5633 190.732 17.2367 190.359 16.994C189.995 16.7513 189.589 16.63 189.141 16.63C188.693 16.63 188.287 16.756 187.923 17.008C187.559 17.2507 187.265 17.5773 187.041 17.988C186.826 18.3987 186.719 18.8607 186.719 19.374ZM194.316 23V15.692H195.548V18.716H199.356V15.692H200.588V23H199.356V19.808H195.548V23H194.316ZM204.352 23V16.784H201.832V15.692H208.104V16.784H205.584V23H204.352ZM208.768 20.886C208.768 20.4193 208.898 20.018 209.16 19.682C209.43 19.3367 209.799 19.0707 210.266 18.884C210.732 18.6973 211.274 18.604 211.89 18.604C212.216 18.604 212.562 18.632 212.926 18.688C213.29 18.7347 213.612 18.8093 213.892 18.912V18.38C213.892 17.82 213.724 17.3813 213.388 17.064C213.052 16.7373 212.576 16.574 211.96 16.574C211.558 16.574 211.171 16.6487 210.798 16.798C210.434 16.938 210.046 17.1433 209.636 17.414L209.188 16.546C209.664 16.2193 210.14 15.9767 210.616 15.818C211.092 15.65 211.586 15.566 212.1 15.566C213.033 15.566 213.77 15.8273 214.312 16.35C214.853 16.8633 215.124 17.582 215.124 18.506V21.6C215.124 21.7493 215.152 21.8613 215.208 21.936C215.273 22.0013 215.376 22.0387 215.516 22.048V23C215.394 23.0187 215.287 23.0327 215.194 23.042C215.11 23.0513 215.04 23.056 214.984 23.056C214.694 23.056 214.475 22.9767 214.326 22.818C214.186 22.6593 214.106 22.4913 214.088 22.314L214.06 21.852C213.742 22.2627 213.327 22.58 212.814 22.804C212.3 23.028 211.792 23.14 211.288 23.14C210.802 23.14 210.368 23.042 209.986 22.846C209.603 22.6407 209.304 22.37 209.09 22.034C208.875 21.6887 208.768 21.306 208.768 20.886ZM213.528 21.404C213.64 21.2733 213.728 21.1427 213.794 21.012C213.859 20.872 213.892 20.7553 213.892 20.662V19.752C213.602 19.64 213.299 19.556 212.982 19.5C212.664 19.4347 212.352 19.402 212.044 19.402C211.418 19.402 210.91 19.528 210.518 19.78C210.135 20.0227 209.944 20.3587 209.944 20.788C209.944 21.0213 210.004 21.25 210.126 21.474C210.256 21.6887 210.443 21.866 210.686 22.006C210.938 22.146 211.246 22.216 211.61 22.216C211.992 22.216 212.356 22.1413 212.702 21.992C213.047 21.8333 213.322 21.6373 213.528 21.404ZM217.08 23V15.692H218.312V18.702H219.124L221.42 15.692H222.82L220.09 19.234L223.142 23H221.714L219.124 19.836H218.312V23H217.08ZM226.131 23V16.784H223.611V15.692H229.883V16.784H227.363V23H226.131ZM231.107 23V15.692H232.339V18.184H233.823C234.682 18.184 235.33 18.4033 235.769 18.842C236.217 19.2713 236.441 19.836 236.441 20.536C236.441 21.0027 236.343 21.4227 236.147 21.796C235.96 22.1693 235.68 22.4633 235.307 22.678C234.934 22.8927 234.467 23 233.907 23H231.107ZM232.339 22.034H233.739C234.084 22.034 234.36 21.9687 234.565 21.838C234.78 21.698 234.938 21.516 235.041 21.292C235.144 21.068 235.195 20.8253 235.195 20.564C235.195 20.312 235.148 20.0787 235.055 19.864C234.962 19.6493 234.808 19.4767 234.593 19.346C234.378 19.2153 234.084 19.15 233.711 19.15H232.339V22.034ZM237.701 23V15.706H238.933V23H237.701Z" fill="white"/>
</g>
<path d="M0 14.2V33C0 34.6569 1.34315 36 3 36H11.8125H7.1875H26C27.6569 36 29 34.6569 29 33V24.2V21.8V21.5V3C29 1.34315 27.6569 0 26 0H11.8125H3C1.34315 0 0 1.34315 0 3V11.8V14.2ZM14.5 9.9C15.217 9.9 15.9178 10.1111 16.5139 10.5067C17.1101 10.9023 17.5747 11.4645 17.8491 12.1223C18.1234 12.7802 18.1952 13.504 18.0553 14.2023C17.9155 14.9007 17.5702 15.5421 17.0633 16.0456C16.5563 16.5491 15.9104 16.8919 15.2072 17.0308C14.504 17.1697 13.7752 17.0984 13.1128 16.826C12.4504 16.5535 11.8842 16.0921 11.4859 15.5001C11.0876 14.908 10.875 14.212 10.875 13.5C10.875 12.5452 11.2569 11.6295 11.9367 10.9544C12.6166 10.2793 13.5386 9.9 14.5 9.9ZM7.63244 25.587C8.11833 24.1608 9.04221 22.9218 10.2741 22.0442C11.506 21.1666 12.9839 20.6946 14.5 20.6946C16.0161 20.6946 17.494 21.1666 18.7259 22.0442C19.9578 22.9218 20.8817 24.1608 21.3676 25.587C21.4508 25.8558 21.4691 26.1403 21.4208 26.4174C21.3726 26.6945 21.2591 26.9564 21.0898 27.1817C20.9204 27.4071 20.6999 27.5896 20.4461 27.7144C20.1924 27.8392 19.9125 27.9028 19.6294 27.9H9.38875C9.10497 27.903 8.82446 27.8397 8.5698 27.7153C8.31514 27.5909 8.09345 27.4089 7.92258 27.1839C7.75171 26.9588 7.63644 26.6971 7.58604 26.4197C7.53565 26.1424 7.55154 25.8571 7.63244 25.587Z" fill="#459D98"/>
<defs>
<filter id="filter0_b_431_1297" x="35" y="-4" width="241" height="44" filterUnits="userSpaceOnUse" color-interpolation-filters="sRGB">
<feFlood flood-opacity="0" result="BackgroundImageFix"/>
<feGaussianBlur in="BackgroundImageFix" stdDeviation="2"/>
<feComposite in2="SourceAlpha" operator="in" result="effect1_backgroundBlur_431_1297"/>
<feBlend mode="normal" in="SourceGraphic" in2="effect1_backgroundBlur_431_1297" result="shape"/>
</filter>
</defs>
</svg>
