<svg width="151" height="33" viewBox="0 0 151 33" fill="none" xmlns="http://www.w3.org/2000/svg">
<g clip-path="url(#clip0_226_4525)" filter="url(#filter0_d_226_4525)">
<path d="M35.5393 24.32H28.8281L38.1053 0.898438H44.2244L53.699 24.32L47.0865 24.2208L41.1648 8.73871L38.7962 15.4873H41.1648L42.5466 20.8465H36.6249L35.5393 24.32Z" fill="white"/>
<path d="M141.492 17.1746C141.492 17.1746 146.229 15.3882 146.229 9.83051C146.229 4.27285 142.479 0.89856 139.123 0.89856C135.768 0.89856 125.898 0.89856 125.898 0.89856V24.3201H131.82V9.53278V6.45622H134.88H137.248H137.544V6.47607C139.104 6.63486 140.308 7.94488 140.308 9.53278C140.308 11.1207 139.104 12.4506 137.544 12.5895V12.6093H137.248H134.88H134.386L139.321 24.3201H146.624L141.492 17.1746Z" fill="white"/>
<path d="M100.883 0.898316V24.3199H119.042V18.3652L107.101 18.4645V15.4872H116.773V9.92951H107.101V6.75371H119.141V0.99756V0.799072L100.883 0.898316Z" fill="white"/>
<path d="M64.752 0.898438H58.4355V24.32H64.752V0.898438Z" fill="white"/>
<path d="M4.82247 1.51367H5.2962C6.57922 1.51367 10.8428 1.41443 12.4219 1.41443C22.0544 1.41443 25.9429 6.55527 25.9429 12.4901C25.9429 18.7424 21.3241 23.923 12.1456 23.923C10.8625 23.923 7.70433 23.8634 5.3949 23.8634H4.80273V1.51367H4.82247ZM10.3296 6.29723V19.0798C11.0599 19.1394 11.5337 19.1394 12.3232 19.1394C17.0802 19.1394 20.1003 16.7377 20.1003 12.4901C20.1003 8.3615 16.8236 6.19799 12.3627 6.19799C11.7705 6.19799 11.0204 6.19799 10.3296 6.29723Z" fill="white"/>
<path d="M12.1457 24.5187C11.593 24.5187 10.7245 24.4988 9.69811 24.4988C8.29665 24.479 6.71755 24.4591 5.41479 24.4591H4.23047V0.918458H5.29636C5.88852 0.918458 7.1518 0.898608 8.49404 0.878759C10.0139 0.858911 11.5733 0.819214 12.4221 0.819214C17.1001 0.819214 20.7321 1.99029 23.1994 4.29275C25.3904 6.33718 26.5353 9.15571 26.5353 12.4903C26.5353 15.8447 25.2325 18.8816 22.8836 21.0054C20.3373 23.3079 16.6264 24.5187 12.1457 24.5187ZM5.41479 23.2682C6.73729 23.2682 8.31639 23.288 9.71784 23.3079C10.7443 23.3277 11.6128 23.3277 12.1655 23.3277C16.3501 23.3277 19.7846 22.2162 22.1138 20.1122C24.2456 18.1869 25.3707 15.547 25.3707 12.4903C25.3707 9.49313 24.3443 6.97234 22.4099 5.1661C20.1596 3.08197 16.8041 2.01014 12.4418 2.01014C11.6128 2.01014 10.0534 2.02999 8.53352 2.06969C7.27024 2.08954 6.06617 2.10939 5.41479 2.10939V23.2682ZM12.3234 19.7351C11.5141 19.7351 11.0206 19.7351 10.2705 19.6756L9.73758 19.6359V5.80126L10.2508 5.72186C10.9811 5.62262 11.7707 5.62262 12.3628 5.62262C17.4949 5.62262 20.6926 8.26251 20.6926 12.5101C20.6926 16.9563 17.4752 19.7351 12.3234 19.7351ZM10.9219 18.5045C11.3562 18.5243 11.7707 18.5243 12.3234 18.5243C16.883 18.5243 19.5083 16.3211 19.5083 12.4705C19.5083 8.89767 16.8435 6.77385 12.3628 6.77385C11.9286 6.77385 11.4154 6.77385 10.9219 6.81355V18.5045Z" fill="white"/>
<path d="M94.0263 10.6244V24.3201H89.289V22.3352C85.3412 26.2256 79.0051 25.3324 74.9784 21.839C72.8663 20.0129 71.5043 17.3929 71.0503 14.5346C69.9647 7.66696 74.8994 1.19626 81.7882 0.481702C85.0254 0.144273 88.9534 1.13671 93.138 5.34466L88.4007 8.71895C88.4007 8.71895 86.0321 5.74163 82.4791 6.33709C78.9261 6.93256 76.3601 10.3069 77.347 14.0781C78.3339 17.8494 83.466 21.2237 88.2033 16.2615V15.666H82.4791V10.5053L94.0263 10.6244Z" fill="white"/>
</g>
<defs>
<filter id="filter0_d_226_4525" x="0" y="0" width="150.857" height="33" filterUnits="userSpaceOnUse" color-interpolation-filters="sRGB">
<feFlood flood-opacity="0" result="BackgroundImageFix"/>
<feColorMatrix in="SourceAlpha" type="matrix" values="0 0 0 0 0 0 0 0 0 0 0 0 0 0 0 0 0 0 127 0" result="hardAlpha"/>
<feOffset dy="4"/>
<feGaussianBlur stdDeviation="2"/>
<feComposite in2="hardAlpha" operator="out"/>
<feColorMatrix type="matrix" values="0 0 0 0 0 0 0 0 0 0 0 0 0 0 0 0 0 0 0.25 0"/>
<feBlend mode="normal" in2="BackgroundImageFix" result="effect1_dropShadow_226_4525"/>
<feBlend mode="normal" in="SourceGraphic" in2="effect1_dropShadow_226_4525" result="shape"/>
</filter>
<clipPath id="clip0_226_4525">
<rect width="142.857" height="25" fill="white" transform="translate(4)"/>
</clipPath>
</defs>
</svg>
