<svg width="143" height="25" viewBox="0 0 143 25" fill="none" xmlns="http://www.w3.org/2000/svg">
<g clip-path="url(#clip0_226_4919)">
<path d="M31.5393 24.32H24.8281L34.1053 0.898438H40.2244L49.699 24.32L43.0865 24.2208L37.1648 8.73871L34.7962 15.4873H37.1648L38.5466 20.8465H32.6249L31.5393 24.32Z" fill="white"/>
<path d="M137.493 17.1744C137.493 17.1744 142.23 15.3881 142.23 9.83039C142.23 4.27273 138.48 0.898438 135.124 0.898438C131.769 0.898438 121.899 0.898438 121.899 0.898438V24.32H127.821V9.53266V6.4561H130.881H133.249H133.545V6.47595C135.105 6.63474 136.309 7.94476 136.309 9.53266C136.309 11.1206 135.105 12.4504 133.545 12.5894V12.6092H133.249H130.881H130.387L135.322 24.32H142.625L137.493 17.1744Z" fill="white"/>
<path d="M96.8833 0.898316V24.3199H115.043V18.3652L103.101 18.4645V15.4872H112.773V9.92951H103.101V6.75371H115.142V0.99756V0.799072L96.8833 0.898316Z" fill="white"/>
<path d="M60.7524 0.898438H54.436V24.32H60.7524V0.898438Z" fill="white"/>
<path d="M0.823938 1.51367H1.29767C2.58069 1.51367 6.84426 1.41443 8.42336 1.41443C18.0559 1.41443 21.9444 6.55526 21.9444 12.4901C21.9444 18.7424 17.3255 23.923 8.14702 23.923C6.864 23.923 3.7058 23.8634 1.39636 23.8634H0.804199V1.51367H0.823938ZM6.33105 6.29723V19.0798C7.06139 19.1394 7.53512 19.1394 8.32467 19.1394C13.0817 19.1394 16.1017 16.7377 16.1017 12.4901C16.1017 8.3615 12.8251 6.19799 8.36415 6.19799C7.77198 6.19799 7.02191 6.19799 6.33105 6.29723Z" fill="white"/>
<path d="M8.14718 24.5187C7.59449 24.5187 6.72599 24.4988 5.69957 24.4988C4.29812 24.479 2.71902 24.4591 1.41626 24.4591H0.231934V0.918458H1.29783C1.88999 0.918458 3.15327 0.898608 4.49551 0.878759C6.01539 0.858911 7.57475 0.819214 8.42352 0.819214C13.1016 0.819214 16.7335 1.99029 19.2009 4.29275C21.3919 6.33718 22.5367 9.15571 22.5367 12.4903C22.5367 15.8447 21.234 18.8816 18.8851 21.0054C16.3388 23.3079 12.6279 24.5187 8.14718 24.5187ZM1.41626 23.2682C2.73876 23.2682 4.31786 23.288 5.71931 23.3079C6.74572 23.3277 7.61423 23.3277 8.16692 23.3277C12.3515 23.3277 15.7861 22.2162 18.1152 20.1122C20.247 18.1869 21.3721 15.547 21.3721 12.4903C21.3721 9.49313 20.3457 6.97234 18.4113 5.1661C16.1611 3.08197 12.8055 2.01014 8.44326 2.01014C7.61423 2.01014 6.05487 2.02999 4.53498 2.06969C3.2717 2.08954 2.06764 2.10939 1.41626 2.10939V23.2682ZM8.32483 19.7351C7.51554 19.7351 7.02207 19.7351 6.27199 19.6756L5.73905 19.6359V5.80126L6.25226 5.72186C6.98259 5.62262 7.77214 5.62262 8.3643 5.62262C13.4964 5.62262 16.6941 8.26251 16.6941 12.5101C16.6941 16.9563 13.4766 19.7351 8.32483 19.7351ZM6.92337 18.5045C7.35763 18.5243 7.77214 18.5243 8.32483 18.5243C12.8845 18.5243 15.5097 16.3211 15.5097 12.4705C15.5097 8.89767 12.845 6.77385 8.3643 6.77385C7.93005 6.77385 7.41684 6.77385 6.92337 6.81355V18.5045Z" fill="white"/>
<path d="M90.0263 10.6244V24.3201H85.289V22.3352C81.3412 26.2256 75.0051 25.3324 70.9784 21.839C68.8663 20.0129 67.5043 17.3929 67.0503 14.5346C65.9647 7.66696 70.8994 1.19626 77.7882 0.481702C81.0254 0.144273 84.9534 1.13671 89.138 5.34466L84.4007 8.71895C84.4007 8.71895 82.0321 5.74163 78.4791 6.33709C74.9261 6.93256 72.3601 10.3069 73.347 14.0781C74.3339 17.8494 79.466 21.2237 84.2033 16.2615V15.666H78.4791V10.5053L90.0263 10.6244Z" fill="white"/>
</g>
<defs>
<clipPath id="clip0_226_4919">
<rect width="142.857" height="25" fill="white"/>
</clipPath>
</defs>
</svg>
