<svg width="1095" height="36" viewBox="0 0 1095 36" fill="none" xmlns="http://www.w3.org/2000/svg">
<path d="M0 8L1095 8.0001" stroke="url(#paint0_linear_195_1018)" stroke-width="6"/>
<path d="M99.696 30.432V28.98H103.332V30.432H99.696ZM110.82 30.156C110.82 30.708 110.68 31.208 110.4 31.656C110.128 32.104 109.756 32.46 109.284 32.724C108.82 32.988 108.292 33.12 107.7 33.12C107.06 33.12 106.504 32.964 106.032 32.652C105.568 32.34 105.208 31.892 104.952 31.308C104.696 30.724 104.568 30.024 104.568 29.208C104.568 28.176 104.7 27.304 104.964 26.592C105.236 25.872 105.62 25.332 106.116 24.972C106.612 24.604 107.196 24.42 107.868 24.42C108.404 24.42 108.896 24.536 109.344 24.768C109.8 25 110.184 25.332 110.496 25.764L109.572 26.772C109.38 26.476 109.132 26.244 108.828 26.076C108.524 25.9 108.196 25.812 107.844 25.812C107.484 25.812 107.172 25.908 106.908 26.1C106.644 26.292 106.44 26.572 106.296 26.94C106.152 27.3 106.072 27.736 106.056 28.248C106.168 28.056 106.312 27.892 106.488 27.756C106.664 27.612 106.868 27.504 107.1 27.432C107.332 27.352 107.58 27.312 107.844 27.312C108.412 27.312 108.92 27.44 109.368 27.696C109.816 27.944 110.168 28.284 110.424 28.716C110.688 29.14 110.82 29.62 110.82 30.156ZM107.7 31.764C107.988 31.764 108.252 31.692 108.492 31.548C108.732 31.396 108.924 31.2 109.068 30.96C109.212 30.712 109.284 30.444 109.284 30.156C109.284 29.868 109.212 29.608 109.068 29.376C108.924 29.136 108.732 28.948 108.492 28.812C108.26 28.668 108 28.596 107.712 28.596C107.424 28.596 107.16 28.668 106.92 28.812C106.68 28.948 106.488 29.136 106.344 29.376C106.208 29.608 106.14 29.868 106.14 30.156C106.14 30.444 106.212 30.712 106.356 30.96C106.5 31.2 106.692 31.396 106.932 31.548C107.172 31.692 107.428 31.764 107.7 31.764Z" fill="black"/>
<path d="M247.696 30.432V28.98H251.332V30.432H247.696ZM255.76 34.524V32.736H252.256V31.308L256.276 26.148H257.368V31.296H258.424V32.736H257.368V34.524H255.76ZM253.864 31.296H255.94V28.584L253.864 31.296Z" fill="black"/>
<path d="M394.696 30.432V28.98H398.332V30.432H394.696ZM399.472 33C399.472 32.64 399.5 32.316 399.556 32.028C399.612 31.74 399.708 31.472 399.844 31.224C399.988 30.976 400.18 30.744 400.42 30.528C400.668 30.304 400.98 30.088 401.356 29.88C401.684 29.704 401.972 29.552 402.22 29.424C402.468 29.288 402.676 29.164 402.844 29.052C403.02 28.94 403.152 28.828 403.24 28.716C403.328 28.596 403.372 28.46 403.372 28.308C403.372 28.148 403.328 28.004 403.24 27.876C403.152 27.74 403.028 27.632 402.868 27.552C402.708 27.472 402.508 27.432 402.268 27.432C402.076 27.432 401.896 27.456 401.728 27.504C401.568 27.552 401.416 27.62 401.272 27.708C401.136 27.796 401.008 27.896 400.888 28.008C400.768 28.112 400.66 28.224 400.564 28.344L399.544 27.168C399.656 27.056 399.804 26.936 399.988 26.808C400.18 26.672 400.404 26.548 400.66 26.436C400.924 26.316 401.212 26.22 401.524 26.148C401.844 26.068 402.184 26.028 402.544 26.028C403.088 26.028 403.552 26.116 403.936 26.292C404.32 26.46 404.612 26.696 404.812 27C405.02 27.304 405.124 27.66 405.124 28.068C405.124 28.348 405.072 28.596 404.968 28.812C404.864 29.028 404.732 29.22 404.572 29.388C404.412 29.548 404.236 29.692 404.044 29.82C403.86 29.948 403.68 30.06 403.504 30.156C403.256 30.284 403.032 30.404 402.832 30.516C402.632 30.62 402.456 30.728 402.304 30.84C402.152 30.944 402.016 31.052 401.896 31.164C401.784 31.276 401.684 31.404 401.596 31.548H405.256V33H399.472Z" fill="black"/>
<path d="M549.78 29.484C549.78 30.188 549.644 30.816 549.372 31.368C549.108 31.912 548.74 32.34 548.268 32.652C547.804 32.964 547.276 33.12 546.684 33.12C546.092 33.12 545.56 32.964 545.088 32.652C544.624 32.34 544.256 31.912 543.984 31.368C543.72 30.816 543.588 30.188 543.588 29.484C543.588 28.78 543.72 28.156 543.984 27.612C544.256 27.06 544.624 26.628 545.088 26.316C545.56 25.996 546.092 25.836 546.684 25.836C547.276 25.836 547.804 25.996 548.268 26.316C548.74 26.628 549.108 27.06 549.372 27.612C549.644 28.156 549.78 28.78 549.78 29.484ZM548.16 29.484C548.16 29.052 548.096 28.676 547.968 28.356C547.848 28.028 547.676 27.772 547.452 27.588C547.228 27.404 546.972 27.312 546.684 27.312C546.388 27.312 546.128 27.404 545.904 27.588C545.68 27.772 545.504 28.028 545.376 28.356C545.256 28.676 545.196 29.052 545.196 29.484C545.196 29.916 545.256 30.292 545.376 30.612C545.504 30.932 545.68 31.184 545.904 31.368C546.128 31.552 546.388 31.644 546.684 31.644C546.972 31.644 547.224 31.552 547.44 31.368C547.664 31.184 547.84 30.932 547.968 30.612C548.096 30.284 548.16 29.908 548.16 29.484Z" fill="black"/>
<path d="M691.456 33C691.456 32.64 691.484 32.316 691.54 32.028C691.596 31.74 691.692 31.472 691.828 31.224C691.972 30.976 692.164 30.744 692.404 30.528C692.652 30.304 692.964 30.088 693.34 29.88C693.668 29.704 693.956 29.552 694.204 29.424C694.452 29.288 694.66 29.164 694.828 29.052C695.004 28.94 695.136 28.828 695.224 28.716C695.312 28.596 695.356 28.46 695.356 28.308C695.356 28.148 695.312 28.004 695.224 27.876C695.136 27.74 695.012 27.632 694.852 27.552C694.692 27.472 694.492 27.432 694.252 27.432C694.06 27.432 693.88 27.456 693.712 27.504C693.552 27.552 693.4 27.62 693.256 27.708C693.12 27.796 692.992 27.896 692.872 28.008C692.752 28.112 692.644 28.224 692.548 28.344L691.528 27.168C691.64 27.056 691.788 26.936 691.972 26.808C692.164 26.672 692.388 26.548 692.644 26.436C692.908 26.316 693.196 26.22 693.508 26.148C693.828 26.068 694.168 26.028 694.528 26.028C695.072 26.028 695.536 26.116 695.92 26.292C696.304 26.46 696.596 26.696 696.796 27C697.004 27.304 697.108 27.66 697.108 28.068C697.108 28.348 697.056 28.596 696.952 28.812C696.848 29.028 696.716 29.22 696.556 29.388C696.396 29.548 696.22 29.692 696.028 29.82C695.844 29.948 695.664 30.06 695.488 30.156C695.24 30.284 695.016 30.404 694.816 30.516C694.616 30.62 694.44 30.728 694.288 30.84C694.136 30.944 694 31.052 693.88 31.164C693.768 31.276 693.668 31.404 693.58 31.548H697.24V33H691.456Z" fill="black"/>
<path d="M843.744 34.524V32.736H840.24V31.308L844.26 26.148H845.352V31.296H846.408V32.736H845.352V34.524H843.744ZM841.848 31.296H843.924V28.584L841.848 31.296Z" fill="black"/>
<path d="M991.804 30.156C991.804 30.708 991.664 31.208 991.384 31.656C991.112 32.104 990.74 32.46 990.268 32.724C989.804 32.988 989.276 33.12 988.684 33.12C988.044 33.12 987.488 32.964 987.016 32.652C986.552 32.34 986.192 31.892 985.936 31.308C985.68 30.724 985.552 30.024 985.552 29.208C985.552 28.176 985.684 27.304 985.948 26.592C986.22 25.872 986.604 25.332 987.1 24.972C987.596 24.604 988.18 24.42 988.852 24.42C989.388 24.42 989.88 24.536 990.328 24.768C990.784 25 991.168 25.332 991.48 25.764L990.556 26.772C990.364 26.476 990.116 26.244 989.812 26.076C989.508 25.9 989.18 25.812 988.828 25.812C988.468 25.812 988.156 25.908 987.892 26.1C987.628 26.292 987.424 26.572 987.28 26.94C987.136 27.3 987.056 27.736 987.04 28.248C987.152 28.056 987.296 27.892 987.472 27.756C987.648 27.612 987.852 27.504 988.084 27.432C988.316 27.352 988.564 27.312 988.828 27.312C989.396 27.312 989.904 27.44 990.352 27.696C990.8 27.944 991.152 28.284 991.408 28.716C991.672 29.14 991.804 29.62 991.804 30.156ZM988.684 31.764C988.972 31.764 989.236 31.692 989.476 31.548C989.716 31.396 989.908 31.2 990.052 30.96C990.196 30.712 990.268 30.444 990.268 30.156C990.268 29.868 990.196 29.608 990.052 29.376C989.908 29.136 989.716 28.948 989.476 28.812C989.244 28.668 988.984 28.596 988.696 28.596C988.408 28.596 988.144 28.668 987.904 28.812C987.664 28.948 987.472 29.136 987.328 29.376C987.192 29.608 987.124 29.868 987.124 30.156C987.124 30.444 987.196 30.712 987.34 30.96C987.484 31.2 987.676 31.396 987.916 31.548C988.156 31.692 988.412 31.764 988.684 31.764Z" fill="black"/>
<path d="M547 0L547 16" stroke="#286561" stroke-width="2"/>
<path d="M402 0L402 16" stroke="#286561" stroke-width="2"/>
<path d="M255 0L255 16" stroke="#286561" stroke-width="2"/>
<path d="M105 0L105 16" stroke="#286561" stroke-width="2"/>
<path d="M695 0L695 16" stroke="#286561" stroke-width="2"/>
<path d="M844 0L844 16" stroke="#286561" stroke-width="2"/>
<path d="M990 0L990 16" stroke="#286561" stroke-width="2"/>
<defs>
<linearGradient id="paint0_linear_195_1018" x1="4.37114e-08" y1="7.5" x2="1095" y2="7.5001" gradientUnits="userSpaceOnUse">
<stop stop-color="#0079C1"/>
<stop offset="0.494792" stop-color="white"/>
<stop offset="1" stop-color="#FF3131"/>
</linearGradient>
</defs>
</svg>
