<svg width="38" height="1068" viewBox="0 0 38 1068" fill="none" xmlns="http://www.w3.org/2000/svg">
<path d="M8 1068L8.00005 3.43323e-05" stroke="url(#paint0_linear_195_1022)" stroke-width="6"/>
<path d="M20.696 967.432L20.696 965.98H24.332L24.332 967.432H20.696ZM31.8196 967.156C31.8196 967.708 31.6796 968.208 31.3996 968.656C31.1276 969.104 30.7556 969.46 30.2836 969.724C29.8196 969.988 29.2916 970.12 28.6996 970.12C28.0596 970.12 27.5036 969.964 27.0316 969.652C26.5676 969.34 26.2076 968.892 25.9516 968.308C25.6956 967.724 25.5676 967.024 25.5676 966.208C25.5676 965.176 25.6996 964.304 25.9636 963.592C26.2356 962.872 26.6196 962.332 27.1156 961.972C27.6116 961.604 28.1956 961.42 28.8676 961.42C29.4036 961.42 29.8956 961.536 30.3436 961.768C30.7996 962 31.1836 962.332 31.4956 962.764L30.5716 963.772C30.3796 963.476 30.1316 963.244 29.8276 963.076C29.5236 962.9 29.1956 962.812 28.8436 962.812C28.4836 962.812 28.1716 962.908 27.9076 963.1C27.6436 963.292 27.4396 963.572 27.2956 963.94C27.1516 964.3 27.0716 964.736 27.0556 965.248C27.1676 965.056 27.3116 964.892 27.4876 964.756C27.6636 964.612 27.8676 964.504 28.0996 964.432C28.3316 964.352 28.5796 964.312 28.8436 964.312C29.4116 964.312 29.9196 964.44 30.3676 964.696C30.8156 964.944 31.1676 965.284 31.4236 965.716C31.6876 966.14 31.8196 966.62 31.8196 967.156ZM28.6996 968.764C28.9876 968.764 29.2516 968.692 29.4916 968.548C29.7316 968.396 29.9236 968.2 30.0676 967.96C30.2116 967.712 30.2836 967.444 30.2836 967.156C30.2836 966.868 30.2116 966.608 30.0676 966.376C29.9236 966.136 29.7316 965.948 29.4916 965.812C29.2596 965.668 28.9996 965.596 28.7116 965.596C28.4236 965.596 28.1596 965.668 27.9196 965.812C27.6796 965.948 27.4876 966.136 27.3436 966.376C27.2076 966.608 27.1396 966.868 27.1396 967.156C27.1396 967.444 27.2116 967.712 27.3556 967.96C27.4996 968.2 27.6916 968.396 27.9316 968.548C28.1716 968.692 28.4276 968.764 28.6996 968.764Z" fill="black"/>
<path d="M23.696 820.432L23.696 818.98H27.332L27.332 820.432H23.696ZM31.7596 824.524L31.7596 822.736H28.2556L28.2556 821.308L32.2756 816.148H33.3676L33.3676 821.296H34.4236L34.4236 822.736H33.3676L33.3676 824.524H31.7596ZM29.8636 821.296H31.9396L31.9396 818.584L29.8636 821.296Z" fill="black"/>
<path d="M23.696 676.432L23.696 674.98H27.332L27.332 676.432H23.696ZM28.4716 679C28.4716 678.64 28.4996 678.316 28.5556 678.028C28.6116 677.74 28.7076 677.472 28.8436 677.224C28.9876 676.976 29.1796 676.744 29.4196 676.528C29.6676 676.304 29.9796 676.088 30.3556 675.88C30.6836 675.704 30.9716 675.552 31.2196 675.424C31.4676 675.288 31.6756 675.164 31.8436 675.052C32.0196 674.94 32.1516 674.828 32.2396 674.716C32.3276 674.596 32.3716 674.46 32.3716 674.308C32.3716 674.148 32.3276 674.004 32.2396 673.876C32.1516 673.74 32.0276 673.632 31.8676 673.552C31.7076 673.472 31.5076 673.432 31.2676 673.432C31.0756 673.432 30.8956 673.456 30.7276 673.504C30.5676 673.552 30.4156 673.62 30.2716 673.708C30.1356 673.796 30.0076 673.896 29.8876 674.008C29.7676 674.112 29.6596 674.224 29.5636 674.344L28.5436 673.168C28.6556 673.056 28.8036 672.936 28.9876 672.808C29.1796 672.672 29.4036 672.548 29.6596 672.436C29.9236 672.316 30.2116 672.22 30.5236 672.148C30.8436 672.068 31.1836 672.028 31.5436 672.028C32.0876 672.028 32.5516 672.116 32.9356 672.292C33.3196 672.46 33.6116 672.696 33.8116 673C34.0196 673.304 34.1236 673.66 34.1236 674.068C34.1236 674.348 34.0716 674.596 33.9676 674.812C33.8636 675.028 33.7316 675.22 33.5716 675.388C33.4116 675.548 33.2356 675.692 33.0436 675.82C32.8596 675.948 32.6796 676.06 32.5036 676.156C32.2556 676.284 32.0316 676.404 31.8316 676.516C31.6316 676.62 31.4556 676.728 31.3036 676.84C31.1516 676.944 31.0156 677.052 30.8956 677.164C30.7836 677.276 30.6836 677.404 30.5956 677.548H34.2556L34.2556 679H28.4716Z" fill="black"/>
<path d="M32.28 534.984C32.28 535.688 32.144 536.316 31.872 536.868C31.608 537.412 31.24 537.84 30.768 538.152C30.304 538.464 29.776 538.62 29.184 538.62C28.592 538.62 28.06 538.464 27.588 538.152C27.124 537.84 26.756 537.412 26.484 536.868C26.22 536.316 26.088 535.688 26.088 534.984C26.088 534.28 26.22 533.656 26.484 533.112C26.756 532.56 27.124 532.128 27.588 531.816C28.06 531.496 28.592 531.336 29.184 531.336C29.776 531.336 30.304 531.496 30.768 531.816C31.24 532.128 31.608 532.56 31.872 533.112C32.144 533.656 32.28 534.28 32.28 534.984ZM30.66 534.984C30.66 534.552 30.596 534.176 30.468 533.856C30.348 533.528 30.176 533.272 29.952 533.088C29.728 532.904 29.472 532.812 29.184 532.812C28.888 532.812 28.628 532.904 28.404 533.088C28.18 533.272 28.004 533.528 27.876 533.856C27.756 534.176 27.696 534.552 27.696 534.984C27.696 535.416 27.756 535.792 27.876 536.112C28.004 536.432 28.18 536.684 28.404 536.868C28.628 537.052 28.888 537.144 29.184 537.144C29.472 537.144 29.724 537.052 29.94 536.868C30.164 536.684 30.34 536.432 30.468 536.112C30.596 535.784 30.66 535.408 30.66 534.984Z" fill="black"/>
<path d="M25.956 392.5C25.956 392.14 25.984 391.816 26.04 391.528C26.096 391.24 26.192 390.972 26.328 390.724C26.472 390.476 26.664 390.244 26.904 390.028C27.152 389.804 27.464 389.588 27.84 389.38C28.168 389.204 28.456 389.052 28.704 388.924C28.952 388.788 29.16 388.664 29.328 388.552C29.504 388.44 29.636 388.328 29.724 388.216C29.812 388.096 29.856 387.96 29.856 387.808C29.856 387.648 29.812 387.504 29.724 387.376C29.636 387.24 29.512 387.132 29.352 387.052C29.192 386.972 28.992 386.932 28.752 386.932C28.56 386.932 28.38 386.956 28.212 387.004C28.052 387.052 27.9 387.12 27.756 387.208C27.62 387.296 27.492 387.396 27.372 387.508C27.252 387.612 27.144 387.724 27.048 387.844L26.028 386.668C26.14 386.556 26.288 386.436 26.472 386.308C26.664 386.172 26.888 386.048 27.144 385.936C27.408 385.816 27.696 385.72 28.008 385.648C28.328 385.568 28.668 385.528 29.028 385.528C29.572 385.528 30.036 385.616 30.42 385.792C30.804 385.96 31.096 386.196 31.296 386.5C31.504 386.804 31.608 387.16 31.608 387.568C31.608 387.848 31.556 388.096 31.452 388.312C31.348 388.528 31.216 388.72 31.056 388.888C30.896 389.048 30.72 389.192 30.528 389.32C30.344 389.448 30.164 389.56 29.988 389.656C29.74 389.784 29.516 389.904 29.316 390.016C29.116 390.12 28.94 390.228 28.788 390.34C28.636 390.444 28.5 390.552 28.38 390.664C28.268 390.776 28.168 390.904 28.08 391.048H31.74L31.74 392.5H25.956Z" fill="black"/>
<path d="M29.244 249.024L29.244 247.236H25.74L25.74 245.808L29.76 240.648H30.852L30.852 245.796H31.908L31.908 247.236H30.852L30.852 249.024H29.244ZM27.348 245.796H29.424L29.424 243.084L27.348 245.796Z" fill="black"/>
<path d="M31.804 103.156C31.804 103.708 31.664 104.208 31.384 104.656C31.112 105.104 30.74 105.46 30.268 105.724C29.804 105.988 29.276 106.12 28.684 106.12C28.044 106.12 27.488 105.964 27.016 105.652C26.552 105.34 26.192 104.892 25.936 104.308C25.68 103.724 25.552 103.024 25.552 102.208C25.552 101.176 25.684 100.304 25.948 99.592C26.22 98.872 26.604 98.332 27.1 97.972C27.596 97.604 28.18 97.42 28.852 97.42C29.388 97.42 29.88 97.536 30.328 97.768C30.784 98 31.168 98.332 31.48 98.764L30.556 99.772C30.364 99.476 30.116 99.244 29.812 99.076C29.508 98.9 29.18 98.812 28.828 98.812C28.468 98.812 28.156 98.908 27.892 99.1C27.628 99.292 27.424 99.572 27.28 99.94C27.136 100.3 27.056 100.736 27.04 101.248C27.152 101.056 27.296 100.892 27.472 100.756C27.648 100.612 27.852 100.504 28.084 100.432C28.316 100.352 28.564 100.312 28.828 100.312C29.396 100.312 29.904 100.44 30.352 100.696C30.8 100.944 31.152 101.284 31.408 101.716C31.672 102.14 31.804 102.62 31.804 103.156ZM28.684 104.764C28.972 104.764 29.236 104.692 29.476 104.548C29.716 104.396 29.908 104.2 30.052 103.96C30.196 103.712 30.268 103.444 30.268 103.156C30.268 102.868 30.196 102.608 30.052 102.376C29.908 102.136 29.716 101.948 29.476 101.812C29.244 101.668 28.984 101.596 28.696 101.596C28.408 101.596 28.144 101.668 27.904 101.812C27.664 101.948 27.472 102.136 27.328 102.376C27.192 102.608 27.124 102.868 27.124 103.156C27.124 103.444 27.196 103.712 27.34 103.96C27.484 104.2 27.676 104.396 27.916 104.548C28.156 104.692 28.412 104.764 28.684 104.764Z" fill="black"/>
<path d="M0 534L16 534" stroke="#286561" stroke-width="2"/>
<path d="M0 676L16 676" stroke="#286561" stroke-width="2"/>
<path d="M0 819L16 819" stroke="#286561" stroke-width="2"/>
<path d="M0 966L16 966" stroke="#286561" stroke-width="2"/>
<path d="M0 390L16 390" stroke="#286561" stroke-width="2"/>
<path d="M0 245L16 245" stroke="#286561" stroke-width="2"/>
<path d="M0 102L16 102" stroke="#286561" stroke-width="2"/>
<defs>
<linearGradient id="paint0_linear_195_1022" x1="7.5" y1="1068" x2="7.50005" y2="-2.13168e-08" gradientUnits="userSpaceOnUse">
<stop stop-color="#0079C1"/>
<stop offset="0.494792" stop-color="white"/>
<stop offset="1" stop-color="#FF3131"/>
</linearGradient>
</defs>
</svg>
