<svg width="202" height="96" viewBox="0 0 202 96" fill="none" xmlns="http://www.w3.org/2000/svg">
<path fill-rule="evenodd" clip-rule="evenodd" d="M164.664 58.1287C164.298 58.1407 163.942 58.0081 163.674 57.7599C163.406 57.5118 163.247 57.1681 163.233 56.804C163.233 56.7856 163.233 56.7672 163.233 56.7524V34.2965V34.2079C163.289 33.8756 163.463 33.574 163.722 33.3566C163.98 33.1392 164.308 33.0199 164.647 33.0199C164.986 33.0199 165.314 33.1392 165.572 33.3566C165.831 33.574 166.005 33.8756 166.061 34.2079V34.2965V56.804C166.049 57.1668 165.892 57.5099 165.626 57.7582C165.36 58.0064 165.006 58.1396 164.641 58.1287H164.664ZM167.326 28.9058H161.99C157.486 28.9058 157.219 32.5291 157.219 34.8647V56.2949C157.219 58.6342 157.486 62.2575 161.99 62.2575H167.326C171.827 62.2575 172.105 58.6342 172.105 56.2949V34.8573C172.105 32.5217 171.827 28.9058 167.326 28.9058Z" fill="#0079C1"/>
<path fill-rule="evenodd" clip-rule="evenodd" d="M67 28.8979H79.276V33.0379H73.4327V62.2497H67V28.8979Z" fill="#0079C1"/>
<path fill-rule="evenodd" clip-rule="evenodd" d="M80.2305 62.2501H86.5334L87.1341 53.3947H90.1706L90.7676 62.2501H97.0705L93.7003 28.9058H83.5896L80.2305 62.2575V62.2501ZM87.3528 49.7049L88.4651 33.0198H88.8359L89.9482 49.7049H87.3528Z" fill="#0079C1"/>
<path fill-rule="evenodd" clip-rule="evenodd" d="M106.268 50.5716V56.8442C106.255 56.9845 106.271 57.126 106.316 57.2597C106.361 57.3934 106.433 57.5163 106.528 57.6206C106.624 57.7248 106.74 57.8081 106.869 57.865C106.999 57.9219 107.139 57.9513 107.281 57.9511C107.421 57.9455 107.558 57.9122 107.685 57.8534C107.812 57.7946 107.926 57.7113 108.02 57.6084C108.115 57.5055 108.188 57.3849 108.235 57.2538C108.283 57.1226 108.304 56.9834 108.297 56.8442V49.0957C108.297 48.0478 108.111 46.904 105.701 46.904H103.084V43.2364H105.79C107.644 43.2364 108.282 42.8047 108.282 40.7642V34.1227C108.29 33.9831 108.27 33.8432 108.224 33.7114C108.177 33.5796 108.104 33.4585 108.009 33.3553C107.914 33.252 107.8 33.1688 107.672 33.1104C107.544 33.0521 107.406 33.0199 107.266 33.0157C107.124 33.0139 106.983 33.042 106.852 33.0984C106.722 33.1547 106.605 33.2379 106.51 33.3426C106.414 33.4472 106.342 33.5708 106.297 33.7053C106.253 33.8398 106.238 33.982 106.254 34.1227V39.5651H99.832V34.8569C99.832 32.5213 100.11 28.8979 104.611 28.8979H109.95C114.455 28.8979 114.726 32.5213 114.726 34.8569V40.196C114.726 43.812 112.29 44.8119 110.358 44.716V45.048C114.681 44.9521 114.726 48.3688 114.726 49.5791V56.287C114.726 58.6264 114.455 62.246 109.95 62.246H104.611C100.11 62.246 99.832 58.6264 99.832 56.287V50.5716H106.268Z" fill="#0079C1"/>
<path fill-rule="evenodd" clip-rule="evenodd" d="M118.965 28.8979H133.855V62.2497H127.852V33.0379H124.964V62.2497H118.965V28.8979Z" fill="#0079C1"/>
<path fill-rule="evenodd" clip-rule="evenodd" d="M138.518 62.2497H144.954V50.9111H148.632C153.14 50.9111 153.856 47.2877 153.856 44.9521V34.8569C153.856 32.5213 153.14 28.8979 148.632 28.8979H138.518V62.2497ZM144.954 47.2361V33.0379H146.656C147.353 33.0379 147.857 33.6577 147.857 34.6983V45.5757C147.857 46.6199 147.353 47.2361 146.656 47.2361H144.954Z" fill="#0079C1"/>
<path fill-rule="evenodd" clip-rule="evenodd" d="M192.648 28.8979H201.013V62.2497H194.576V41.3324H194.35L191.032 62.2497H185.893L182.578 41.3324H182.348V62.2497H175.908V28.8979H184.273L188.455 52.3353L192.648 28.8979Z" fill="#0079C1"/>
<path fill-rule="evenodd" clip-rule="evenodd" d="M53.2722 32.2891C53.1943 35.6689 52.7865 39.2369 52.2711 41.3696C52.4031 37.0366 52.0299 32.7029 51.1588 28.4554C50.3098 24.3967 47.9072 17.6518 45.9681 14.5192C44.1996 17.5005 42.0121 23.3451 40.8701 28.4222C39.7282 33.4993 39.6874 39.6428 39.6874 41.4803C38.9899 37.2994 38.7056 33.0605 38.8384 28.8244C39.0551 24.9458 39.6764 21.1001 40.6922 17.3493C42.9464 10.1063 45.5121 5.47561 45.9718 4.74135C48.2539 8.65444 50.0539 12.8269 51.3331 17.1685C52.674 22.0984 53.3216 27.1895 53.2573 32.2965L53.2722 32.2891ZM46.0275 58.1654C47.8743 54.6388 48.7892 50.7026 48.6858 46.7271C48.4671 41.2847 46.617 37.3072 46.0571 36.3552C45.4342 37.3072 43.2912 41.8899 43.3283 47.2068C43.4729 52.7083 45.0301 56.2799 46.0275 58.1507V58.1654ZM53.858 17.2459C51.8299 8.39052 46.7282 1.18072 46.0275 0C44.9152 1.6567 40.8368 8.01785 38.7827 15.0801C36.718 22.1284 36.1027 29.5187 36.9734 36.8091C37.7483 43.6831 40.6811 50.7453 40.6811 50.7453C42.2346 54.4535 44.5592 58.42 46.0682 60.3682C48.2928 57.5049 53.3908 48.9299 54.9666 37.7647C55.8527 31.5548 55.8898 26.1088 53.858 17.2459Z" fill="#0079C1"/>
<path fill-rule="evenodd" clip-rule="evenodd" d="M33.5504 62.2425V72.7288C33.5608 72.7104 33.5746 72.6941 33.5912 72.6808C34.4637 71.8086 35.5003 71.116 36.6418 70.6425C37.7832 70.169 39.0073 69.9239 40.2439 69.9211C41.4806 69.9184 42.7057 70.1581 43.8493 70.6265C44.9929 71.095 46.0326 71.783 46.909 72.6513C47.7854 73.5196 48.4814 74.5512 48.9572 75.6872C49.433 76.8232 49.6793 78.0413 49.682 79.272C49.6848 80.5027 49.4439 81.7219 48.9732 82.86C48.5025 83.9981 47.8112 85.0327 46.9387 85.9049L46.8904 85.9492C46.8719 85.9492 46.8497 85.9824 46.8348 86.0009C44.6498 88.1853 41.9565 89.7989 38.9941 90.6984C36.0318 91.5979 32.8921 91.7555 29.8538 91.1572C26.8156 90.5589 23.9728 89.2232 21.578 87.2687C19.1831 85.3142 17.3103 82.8014 16.1258 79.9535C14.9414 77.1056 14.4819 74.0106 14.7883 70.9435C15.0947 67.8764 16.1574 64.932 17.8821 62.3719C19.6067 59.8117 21.94 57.715 24.6746 56.268C27.4093 54.821 30.4606 54.0684 33.5578 54.077V29.0752C15.0196 29.0752 0 43.9708 0 62.3273C0 80.6839 15.0345 95.5869 33.5504 95.5869C38.1394 95.5931 42.6808 94.662 46.8937 92.8513C51.1066 91.0406 54.9013 88.3888 58.043 85.06V62.2425H33.5504Z" fill="#0079C1"/>
<path fill-rule="evenodd" clip-rule="evenodd" d="M195.006 87.7128C195.006 90.8823 193.552 91.4432 189.863 91.4432H186.463V76.9646H189.863V82.5509H190.427C193.764 82.5509 195.006 83.3257 195.006 86.2406V87.7165V87.7128ZM166.654 79.7024H164.058V91.4543H160.833V79.7024H158.074V76.9535H166.639V79.7024H166.654ZM140.518 86.2812C140.518 89.233 139.006 90.0115 135.669 90.0115V91.4432H132.362V90.0115C129.025 90.0115 127.49 89.2183 127.49 86.2812V81.7576C127.49 78.8057 128.947 78.0678 132.362 78.0678V76.9609H135.669V78.0678C139.061 78.0678 140.518 78.8057 140.518 81.7576V86.2812ZM109.723 79.7024H105.077V82.5472H109.237V85.296H105.077V88.7054H109.723V91.4543H101.566V76.9535H109.723V79.7024ZM81.5449 91.4432H78.1524V85.1079H76.4024V91.4432H73.0025V76.9646H76.4024V82.5509H78.1524V76.9646H81.5449V91.4432ZM201.009 73.3633H66.9961V95.5942H201.012V73.356L201.009 73.3633ZM130.79 81.669V86.3107C130.79 87.1557 131.064 87.3476 131.817 87.3476H132.362V80.599H131.824C131.083 80.599 130.797 80.813 130.797 81.6616L130.79 81.669ZM136.188 80.6063H135.669V87.3476H136.188C136.929 87.3476 137.219 87.1409 137.219 86.2886V81.6247C137.219 80.7724 136.944 80.599 136.188 80.599V80.6063ZM190.616 85.1152H189.875V88.8973H190.616C191.38 88.8973 191.61 88.7054 191.61 87.8752V86.1336C191.61 85.296 191.38 85.1079 190.616 85.1079V85.1152Z" fill="#0079C1"/>
</svg>
