<svg width="69" height="70" viewBox="0 0 69 70" fill="none" xmlns="http://www.w3.org/2000/svg">
<mask id="mask0_226_4599" style="mask-type:luminance" maskUnits="userSpaceOnUse" x="0" y="0" width="69" height="70">
<path d="M68.545 0.112305H0.552734V69.0899H68.545V0.112305Z" fill="white"/>
</mask>
<g mask="url(#mask0_226_4599)">
<path d="M68.545 0.112305H0.552734V69.0899H68.545V0.112305Z" fill="#FF0032"/>
<path d="M45.8477 5.41748V8.59196H52.69V21.3322H56.5146V8.59196H63.343V5.41748H45.8477Z" fill="white"/>
<path d="M21.2461 5.41748L16.2394 15.9427L11.2468 5.41748H5.78125V21.3322H9.61963V9.9464L14.5011 19.5686H17.9917L22.8731 9.9464V21.3322H26.6977V5.41748H21.2461Z" fill="white"/>
<path d="M59.5201 58.4805C59.4228 59.1154 59.1725 59.6374 58.7691 60.0325C58.3936 60.3993 57.8791 60.6674 57.2393 60.8226C56.6135 60.9637 55.6818 61.0483 54.7083 61.0483C53.6931 61.0483 52.803 60.9214 52.0381 60.6533C51.301 60.3993 50.7168 59.9478 50.3135 59.327C49.8963 58.7062 49.6877 57.8034 49.6877 56.6324V55.0098C49.6877 53.8529 49.8963 52.9499 50.3135 52.315C50.7307 51.6942 51.301 51.2429 52.0381 50.9889C52.7891 50.7208 53.6931 50.5938 54.7083 50.5938C55.6818 50.5938 56.6135 50.6785 57.2393 50.8196C57.8791 50.9748 58.3936 51.2286 58.7691 51.6095C59.1725 52.0046 59.4228 52.5266 59.5201 53.1615H63.3445C63.2333 51.8494 62.8023 50.7349 62.0374 49.832C61.342 49.0136 60.3685 48.421 59.1585 48.0542C57.9903 47.7015 56.4466 47.5181 54.7083 47.5181C52.8725 47.5181 51.2871 47.7861 49.9797 48.3082C48.6587 48.8443 47.6295 49.7332 46.9203 50.9607C46.2388 52.1316 45.8911 53.7118 45.8633 55.6306V55.814L46.0719 55.8281L45.8633 55.8423V55.8564V56.0257C45.8911 57.9445 46.2388 59.5246 46.9203 60.6956C47.6295 61.9231 48.6587 62.812 49.9797 63.3481C51.2871 63.8702 52.8725 64.1382 54.7083 64.1382C56.4466 64.1382 57.9903 63.9548 59.1585 63.6021C60.3685 63.2352 61.3281 62.6427 62.0374 61.8243C62.8023 60.9355 63.2472 59.8067 63.3445 58.4946H59.5201V58.4805Z" fill="white"/>
</g>
</svg>
