<svg width="361" height="64" viewBox="0 0 361 64" fill="none" xmlns="http://www.w3.org/2000/svg">
<path d="M108.791 29.4844C108.791 28.8159 109.236 7.64558 109.236 7.64558L103.445 29.4844H98.9893L93.1975 7.64558C93.1975 7.64558 93.643 28.593 93.643 29.4844H88.7422V2.96582H95.8706L100.994 22.5762L106.118 2.96582H113.692V29.4844H108.791Z" fill="#B37A1F"/>
<path d="M119.707 29.4852V2.96655H124.608V29.4852H119.707Z" fill="#B37A1F"/>
<path d="M146.883 29.4852L135.299 10.989C135.299 10.989 135.522 29.0395 135.522 29.4852H130.621V2.96655H135.076L146.883 21.6856C146.883 21.6856 146.215 3.63509 146.215 2.96655H151.115V29.4852H146.883Z" fill="#B37A1F"/>
<path d="M167.378 2.96582C172.947 2.96582 176.734 6.3085 176.734 11.8796C176.734 16.7822 174.061 20.5706 167.155 20.5706H162.032V29.4844H157.131V2.96582H167.378ZM162.254 16.3365H166.71C170.274 16.3365 172.056 14.7766 172.056 11.6568C172.056 7.42273 168.715 7.19988 166.264 7.19988H162.477V16.3365H162.254Z" fill="#B37A1F"/>
<path d="M191.435 2.96631C196.559 2.96631 200.123 6.30899 200.123 11.4344C200.123 13.8857 199.009 17.2284 194.999 18.7883L200.791 29.4849H195.222L190.098 19.6797H185.643V29.4849H180.52V2.96631H191.435ZM185.42 15.4457H189.43C192.994 15.4457 195.222 14.3314 195.222 11.2116C195.222 8.3146 193.217 7.20037 190.098 7.20037H185.643L185.42 15.4457Z" fill="#B37A1F"/>
<path d="M216.387 2.29761C224.406 2.29761 229.085 8.98297 229.085 16.114C229.085 22.1309 225.743 30.1533 216.387 30.1533C208.59 30.1533 203.689 23.6908 203.689 16.3369C203.689 8.53728 208.59 2.29761 216.387 2.29761ZM216.387 25.4735C220.397 25.4735 223.961 22.3537 223.961 16.3369C223.961 11.6571 221.511 6.75452 216.164 6.75452C211.709 6.75452 208.59 10.0972 208.59 15.8912C208.59 20.1252 210.595 25.4735 216.387 25.4735Z" fill="#B37A1F"/>
<path d="M253.142 29.4844C253.142 28.8159 253.588 7.64558 253.588 7.64558L247.796 29.4844H243.341L237.549 7.64558C237.549 7.64558 237.995 28.593 237.995 29.4844H233.094V2.96582H240.222L245.346 22.5762L250.469 2.96582H257.598V29.4844H253.142Z" fill="#B37A1F"/>
<path d="M274.082 7.42273V29.4844H269.181V7.42273H262.053V2.96582H281.433V7.42273H274.082Z" fill="#B37A1F"/>
<path d="M296.58 2.29761C304.6 2.29761 309.278 8.98297 309.278 16.114C309.278 22.1309 305.936 30.1533 296.58 30.1533C288.784 30.1533 283.883 23.6908 283.883 16.3369C283.883 8.53728 288.784 2.29761 296.58 2.29761ZM296.58 25.4735C300.59 25.4735 304.154 22.3537 304.154 16.3369C304.154 11.6571 301.704 6.75452 296.358 6.75452C291.902 6.75452 288.784 10.0972 288.784 15.8912C289.006 20.1252 291.011 25.4735 296.58 25.4735Z" fill="#B37A1F"/>
<path d="M324.872 2.96582C329.996 2.96582 333.56 6.3085 333.56 11.4339C333.56 13.8852 332.446 17.2279 328.437 18.7878L334.228 29.4844H328.659L323.536 19.6792H319.08V29.4844H314.18V2.96582H324.872ZM318.858 15.4452H322.645C326.209 15.4452 328.437 14.3309 328.437 11.2111C328.437 8.31411 326.432 7.19988 323.313 7.19988H318.858V15.4452Z" fill="#B37A1F"/>
<path d="M356.506 29.4848V27.2563C354.278 29.2619 352.273 30.1533 349.154 30.1533C342.917 30.1533 336.68 25.4735 336.68 16.5597C336.68 10.32 340.467 2.29761 349.6 2.29761C355.169 2.29761 359.179 5.86314 360.738 10.0972L356.06 11.88C355.615 10.7657 354.278 6.75452 349.6 6.75452C345.145 6.75452 342.249 10.5429 342.249 16.3369C342.249 17.4511 342.472 25.4735 349.823 25.4735C353.164 25.4735 355.837 23.4679 356.283 19.4567H349.6V14.9998H360.738V29.4848H356.506Z" fill="#B37A1F"/>
<path d="M100.103 35.9475C105.226 35.9475 108.791 39.2902 108.791 44.4156C108.791 46.8669 107.677 50.2096 103.667 51.7695L109.459 62.4661H103.89L98.7663 52.6609H94.3111V62.4661H89.1875V35.9475H100.103ZM94.0883 48.6497H97.8753C101.44 48.6497 103.667 47.5355 103.667 44.4156C103.667 41.5186 101.662 40.4044 98.5436 40.4044H94.0883V48.6497Z" fill="#B37A1F"/>
<path d="M134.854 52.4381C134.854 54.6665 134.854 55.7808 134.409 57.1178C133.517 59.792 130.622 63.1347 123.939 63.1347C119.706 63.1347 115.251 61.5747 113.914 57.1178C113.469 55.7808 113.469 54.4437 113.469 51.7695V35.9475H118.37V52.2152C118.37 53.7751 118.37 54.4437 118.592 55.1122C119.038 56.6721 120.597 58.2321 123.939 58.2321C124.607 58.2321 128.171 58.2321 129.285 55.3351C129.508 54.4437 129.73 53.7751 129.73 51.9924V35.9475H134.631L134.854 52.4381Z" fill="#B37A1F"/>
<path d="M157.13 43.7467C156.239 42.4096 154.457 39.7355 150.224 39.7355C149.11 39.7355 145.323 40.1812 145.323 42.8553C145.323 44.8609 147.328 45.3066 150.224 45.9751L152.897 46.6437C157.13 47.5351 161.585 49.095 161.585 54.4433C161.585 60.9058 155.125 62.9114 150.447 62.9114C145.992 62.9114 141.314 61.3515 138.863 57.3403L143.096 54.4433C144.21 56.226 146.437 58.4545 151.338 58.4545C154.234 58.4545 156.462 57.3403 156.462 54.889C156.462 52.6605 154.68 52.2148 151.338 51.5463L147.997 50.8777C144.655 50.2092 140.423 48.6493 140.423 43.5238C140.423 38.8441 144.21 35.2786 150.893 35.2786C153.343 35.2786 157.798 35.7243 161.585 40.6269L157.13 43.7467Z" fill="#B37A1F"/>
<path d="M182.081 43.7467C181.19 42.4096 179.408 39.7355 175.175 39.7355C174.062 39.7355 170.275 40.1812 170.275 42.8553C170.275 44.8609 172.279 45.3066 175.175 45.9751L177.849 46.6437C182.081 47.5351 186.536 49.095 186.536 54.4433C186.536 60.9058 180.076 62.9114 175.398 62.9114C170.943 62.9114 166.265 61.3515 163.814 57.3403L168.047 54.4433C169.161 56.226 171.388 58.4545 176.289 58.4545C179.185 58.4545 181.413 57.3403 181.413 54.889C181.413 52.6605 179.631 52.2148 176.289 51.5463L172.948 50.8777C169.606 50.2092 165.374 48.6493 165.374 43.5238C165.374 38.8441 169.161 35.2786 175.844 35.2786C178.294 35.2786 182.749 35.7243 186.536 40.6269L182.081 43.7467Z" fill="#B37A1F"/>
<path d="M190.768 62.4661V35.9475H195.668V62.4661H190.768Z" fill="#B37A1F"/>
<path d="M217.276 62.4661L215.717 57.3407H205.693L204.356 62.4661H199.01L207.92 35.9475H213.489L222.623 62.4661H217.276ZM210.816 40.8501L207.252 53.1066H214.603L210.816 40.8501Z" fill="#B37A1F"/>
<path d="M16.5685 62.6887L30.6026 38.3985C31.0481 37.2843 31.4937 36.17 31.4937 35.0558C31.4937 33.9416 31.2709 32.8274 30.8254 31.936L24.3652 20.7937L0.0839844 62.6887H16.5685Z" fill="#B37A1F"/>
<path d="M64.0193 48.4265H36.1739C35.0601 48.4265 33.9462 48.8722 32.8324 49.3179C31.9414 49.7636 31.0503 50.655 30.382 51.5463L23.9219 62.6886H72.2616L64.0193 48.4265Z" fill="#B37A1F"/>
<path d="M27.9297 14.3314L41.9638 38.6216C42.6321 39.513 43.5231 40.4044 44.4142 41.0729C45.3053 41.5186 46.4191 41.9643 47.5329 41.9643H60.2304L36.1719 0.0693359L27.9297 14.3314Z" fill="#B37A1F"/>
</svg>
