<svg width="230" height="70" viewBox="0 0 230 70" fill="none" xmlns="http://www.w3.org/2000/svg">
<path d="M1.79132 65.3711C5.03321 70.1701 11.5691 71.4441 16.3895 68.2167L40.5681 52.0283C45.3886 48.8008 46.6684 42.294 43.4265 37.495C40.1846 32.6959 33.6487 31.4218 28.8283 34.6493L4.64963 50.8377C-0.170851 54.0651 -1.45057 60.572 1.79132 65.3711Z" fill="url(#paint0_linear_226_4631)"/>
<path d="M12.9514 32.5069C16.1933 37.3059 22.7292 38.58 27.5498 35.3525L51.731 19.1623C56.5515 15.9348 57.8312 9.42803 54.5893 4.62896C51.3475 -0.170099 44.8116 -1.44412 39.991 1.78336L15.8098 17.9735C10.9893 21.201 9.7096 27.7078 12.9514 32.5069Z" fill="url(#paint1_linear_226_4631)"/>
<path d="M40.0924 52.2111C49.7024 45.7105 52.1996 32.6849 45.67 23.1176C39.1404 13.5503 26.0566 11.0643 16.4467 17.5648C6.83666 24.0654 4.33951 37.091 10.8691 46.6584C17.3987 56.2256 30.4825 58.7117 40.0924 52.2111Z" fill="url(#paint2_linear_226_4631)"/>
<path d="M45.714 23.1875C47.2785 25.4647 48.3755 28.027 48.9422 30.7274C49.5089 33.428 49.5343 36.2132 49.0166 38.9235C48.499 41.6337 47.4485 44.2152 45.9257 46.5201C44.4029 48.825 42.4377 50.8076 40.1429 52.3541C37.8482 53.9007 35.2692 54.9807 32.5541 55.5319C29.8388 56.0833 27.041 56.0951 24.3212 55.5668C21.6013 55.0385 19.0133 53.9804 16.7054 52.4534C14.3976 50.9263 12.4155 48.9604 10.873 46.6685L28.3499 35.0108L45.714 23.1875Z" fill="url(#paint3_linear_226_4631)"/>
<path d="M79.55 36.5718C79.2357 36.5718 79.061 36.7458 79.061 37.059V44.366C77.4197 42.8001 75.3243 42.1391 72.9496 42.1391C67.4666 42.1391 63.3457 46.0361 63.3457 51.8818C63.3457 57.7273 67.4666 61.6591 72.9496 61.6591C75.3243 61.6591 77.4545 61.0676 78.9912 59.5018H79.2357L79.4452 60.8937C79.4801 61.2068 79.6548 61.3807 79.9691 61.3807H81.7501C82.0644 61.3807 82.2391 61.2068 82.2391 60.8937V37.059C82.2391 36.7458 82.0644 36.5718 81.7501 36.5718H79.55ZM79.061 55.7788C77.4895 57.8317 75.3243 58.7016 72.9496 58.7016C69.1779 58.7016 66.5238 55.9875 66.5238 51.8818C66.5238 47.8107 69.1779 45.0967 72.9496 45.0967C75.4291 45.0967 77.4895 45.9665 79.061 48.0195V55.7788Z" fill="white"/>
<path d="M99.8613 58.7708L100.874 61.3108C100.979 61.5544 101.223 61.6587 101.503 61.5544L103.354 60.8933C103.598 60.7888 103.738 60.6497 103.598 60.3366L103.214 59.2928C102.69 57.9009 102.481 56.4743 102.481 54.9781V48.4366C102.481 44.2612 98.8835 42.1387 94.8324 42.1387C91.6893 42.1387 88.9654 43.0086 86.6605 44.7483C86.4161 44.9572 86.3811 45.1658 86.5906 45.4094L87.778 47.01C87.9178 47.2535 88.267 47.2535 88.4415 47.1144C90.3973 45.6878 92.5624 45.0963 94.8324 45.0963C97.3818 45.0963 99.3026 46.1401 99.3026 48.2278V48.8193L91.7941 49.7937C88.3019 50.2459 85.543 52.4032 85.543 55.7784C85.543 59.1187 88.1273 61.6587 92.5275 61.6587C95.4261 61.6587 97.8009 60.6845 99.6867 58.7708H99.8613ZM99.3026 55.5696C97.8708 57.553 95.3911 58.7012 92.7371 58.7012C90.6417 58.7012 88.7209 57.7617 88.7209 55.6044C88.7209 54.0386 90.1528 52.9252 92.0735 52.6468L99.3026 51.5334V55.5696Z" fill="white"/>
<path d="M108.11 42.4523L105.701 42.6611C105.456 42.6959 105.316 42.835 105.316 43.1134V44.9228C105.316 45.2359 105.456 45.3752 105.77 45.3752H108.145V55.5353C108.145 59.2933 110.101 61.6592 113.977 61.6592C115.409 61.6592 116.736 61.2765 117.958 60.5459C118.203 60.4066 118.273 60.1979 118.168 59.9196L117.47 58.2841C117.365 58.0058 117.155 57.9362 116.876 58.0753C116.038 58.4582 115.234 58.7018 114.257 58.7018C112.441 58.7018 111.323 57.5187 111.323 55.431V45.3752H116.806C117.12 45.3752 117.295 45.2359 117.295 44.9228V42.9047C117.295 42.5916 117.12 42.4175 116.806 42.4175H111.323V38.4857C111.323 38.1726 111.183 37.9985 110.869 37.9985H108.913C108.669 37.9985 108.494 38.1378 108.459 38.4509L108.11 42.4523Z" fill="white"/>
<path d="M134.478 58.7708L135.491 61.3108C135.596 61.5544 135.84 61.6587 136.12 61.5544L137.971 60.8933C138.215 60.7888 138.355 60.6497 138.215 60.3366L137.831 59.2928C137.307 57.9009 137.097 56.4743 137.097 54.9781V48.4366C137.097 44.2612 133.501 42.1387 129.45 42.1387C126.307 42.1387 123.583 43.0086 121.278 44.7483C121.033 44.9572 120.998 45.1658 121.208 45.4094L122.395 47.01C122.535 47.2535 122.884 47.2535 123.059 47.1144C125.014 45.6878 127.18 45.0963 129.45 45.0963C131.999 45.0963 133.92 46.1401 133.92 48.2278V48.8193L126.411 49.7937C122.919 50.2459 120.16 52.4032 120.16 55.7784C120.16 59.1187 122.744 61.6587 127.145 61.6587C130.043 61.6587 132.418 60.6845 134.304 58.7708H134.478ZM133.92 55.5696C132.487 57.553 130.008 58.7012 127.354 58.7012C125.259 58.7012 123.338 57.7617 123.338 55.6044C123.338 54.0386 124.77 52.9252 126.691 52.6468L133.92 51.5334V55.5696Z" fill="white"/>
<path d="M72.5759 11.0298C67.9312 11.0298 64.8929 13.1175 64.8929 16.2839C64.8929 20.2853 68.6297 21.3987 72.6458 21.851C76.1381 22.2686 78.2684 22.9297 78.2684 24.7738C78.2684 26.4093 76.4175 27.5923 72.9251 27.5923C70.236 27.5923 68.0359 26.8268 66.0803 25.0174C65.8358 24.8086 65.5914 24.8434 65.4167 25.087L64.0547 26.792C63.8802 27.0008 63.8802 27.2095 64.0547 27.3835C66.4295 29.6103 69.4329 30.5499 72.9251 30.5499C77.6049 30.5499 81.4114 28.5665 81.4114 24.7738C81.4114 20.7377 77.9192 19.311 73.0649 18.7543C70.0964 18.3716 68.0359 17.7105 68.0359 16.2839C68.0359 14.7877 69.5725 13.9873 72.506 13.9873C75.0554 13.9873 77.081 14.7877 78.7573 16.2143C78.9668 16.3882 79.1763 16.3882 79.3859 16.1794L80.7479 14.4745C80.9225 14.3005 80.9225 14.1266 80.7479 13.9526C78.6176 12.004 75.5444 11.0298 72.5759 11.0298Z" fill="white"/>
<path d="M87.8063 36.1171C88.1206 36.1171 88.2951 35.9432 88.2951 35.63V28.323C89.9365 29.8887 92.0319 30.5499 94.4067 30.5499C99.8895 30.5499 104.01 26.6529 104.01 20.8072C104.01 14.9616 99.8895 11.0298 94.4067 11.0298C92.0319 11.0298 89.9016 11.6561 88.365 13.187H88.1206L87.9109 11.7953C87.8761 11.4821 87.7015 11.3081 87.3872 11.3081H85.6061C85.2919 11.3081 85.1172 11.4821 85.1172 11.7953V35.63C85.1172 35.9432 85.2919 36.1171 85.6061 36.1171H87.8063ZM88.2951 16.9102C89.8667 14.8572 92.0319 13.9873 94.4067 13.9873C98.1784 13.9873 100.833 16.7014 100.833 20.8072C100.833 24.8783 98.1784 27.5923 94.4067 27.5923C91.9272 27.5923 89.8667 26.7224 88.2951 24.6695V16.9102Z" fill="white"/>
<path d="M106.789 20.8072C106.789 26.4093 110.84 30.5499 116.847 30.5499C119.78 30.5499 122.469 29.68 124.844 27.6967C125.054 27.5226 125.089 27.3139 124.914 27.0704L123.587 25.4001C123.412 25.1567 123.238 25.1218 123.028 25.2958C121.038 26.9311 119.222 27.5923 116.847 27.5923C113.075 27.5923 110.631 25.3654 110.107 22.2686H125.822C126.101 22.2686 126.241 22.1294 126.241 21.8162V20.8072C126.241 15.1356 122.225 11.0298 116.672 11.0298C111.015 11.0298 106.789 15.1356 106.789 20.8072ZM116.672 13.9873C119.99 13.9873 122.609 16.3186 122.993 19.3458H110.072C110.526 16.2143 113.215 13.9873 116.672 13.9873Z" fill="white"/>
<path d="M138.875 11.0298C133.288 11.0298 129.027 15.1704 129.027 20.7724C129.027 26.4441 133.288 30.5499 138.875 30.5499C142.123 30.5499 145.022 29.1581 146.943 26.4788C147.118 26.2352 147.082 26.0613 146.874 25.8873L145.232 24.5652C144.988 24.3911 144.813 24.3911 144.638 24.5999C143.136 26.5484 141.25 27.5923 138.875 27.5923C135 27.5923 132.24 24.6695 132.24 20.7724C132.24 16.9102 135 13.9873 138.875 13.9873C141.25 13.9873 143.066 14.9616 144.569 16.9102C144.708 17.0842 144.952 17.1885 145.196 17.0145L146.838 15.7271C147.048 15.5531 147.082 15.3792 146.908 15.1356C145.057 12.4912 142.123 11.0298 138.875 11.0298Z" fill="white"/>
<path d="M151.997 11.3432L149.588 11.552C149.342 11.5867 149.203 11.7259 149.203 12.0043V13.8137C149.203 14.1268 149.342 14.266 149.658 14.266H152.032V24.4262C152.032 28.1841 153.988 30.5502 157.865 30.5502C159.296 30.5502 160.623 30.1673 161.845 29.4367C162.09 29.2974 162.159 29.0888 162.054 28.8104L161.357 27.1749C161.252 26.8966 161.042 26.827 160.763 26.9663C159.924 27.349 159.122 27.5926 158.143 27.5926C156.328 27.5926 155.21 26.4095 155.21 24.3218V14.266H160.692C161.008 14.266 161.182 14.1268 161.182 13.8137V11.7955C161.182 11.4824 161.008 11.3084 160.692 11.3084H155.21V7.37653C155.21 7.06338 155.07 6.8894 154.756 6.8894H152.8C152.556 6.8894 152.381 7.02859 152.346 7.34174L151.997 11.3432Z" fill="white"/>
<path d="M181.03 11.3083C180.716 11.3083 180.541 11.4823 180.541 11.7955V22.0253C180.541 27.6969 183.894 30.5501 188.818 30.5501C191.053 30.5501 192.868 29.8194 194.545 28.2884H194.72L194.929 29.7846C194.964 30.0977 195.139 30.2718 195.453 30.2718H197.234C197.549 30.2718 197.722 30.0977 197.722 29.7846V11.7955C197.722 11.4823 197.549 11.3083 197.234 11.3083H195.034C194.72 11.3083 194.545 11.4823 194.545 11.7955V24.6697C193.114 26.5138 191.367 27.5925 188.887 27.5925C185.5 27.5925 183.719 25.5396 183.719 21.8861V11.7955C183.719 11.4823 183.579 11.3083 183.265 11.3083H181.03Z" fill="white"/>
<path d="M201.9 29.7844C201.9 30.0975 202.04 30.2716 202.319 30.2716H204.624C204.938 30.2716 205.077 30.0975 205.077 29.7844V16.9102C206.336 15.1008 208.117 13.9873 210.108 13.9873C212.761 13.9873 214.228 15.588 214.228 18.6847V29.7844C214.228 30.0975 214.402 30.2716 214.716 30.2716H216.917C217.231 30.2716 217.406 30.0975 217.406 29.7844V18.5804C217.406 17.8496 217.37 17.2233 217.267 16.6666C218.488 15.1356 220.165 13.9873 222.121 13.9873C224.775 13.9873 226.521 15.588 226.521 18.8239V29.7844C226.521 30.0975 226.695 30.2716 227.009 30.2716H229.21C229.524 30.2716 229.699 30.0975 229.699 29.7844V18.6847C229.699 13.2567 226.171 11.0298 222.225 11.0298C219.955 11.0298 217.65 12.0388 216.149 14.0221C214.752 11.9692 212.691 11.0298 210.281 11.0298C208.222 11.0298 206.475 11.7605 205.113 13.2567H204.904L204.694 11.7605C204.658 11.4473 204.484 11.3081 204.205 11.3081H202.389C202.075 11.3081 201.9 11.4821 201.9 11.7953V29.7844Z" fill="white"/>
<path d="M169.812 14.4699C170.454 13.3802 171.405 12.551 172.664 11.9825C173.856 11.4446 175.287 11.1612 176.962 11.1321C177.122 11.1294 177.251 11.2586 177.251 11.4177V14.1111C177.251 14.2833 177.1 14.4178 176.928 14.4096C176.777 14.4024 176.602 14.3989 176.404 14.3989C174.398 14.3989 172.818 14.9555 171.661 16.069C170.532 17.1586 169.965 18.7222 169.965 20.7595V29.8527C169.965 30.0118 169.837 30.1407 169.677 30.1407H166.844C166.683 30.1407 166.555 30.0118 166.555 29.8527V11.5954C166.555 11.4363 166.683 11.3073 166.844 11.3073H169.523C169.682 11.3073 169.812 11.4363 169.812 11.5954V14.4699Z" fill="white"/>
<defs>
<linearGradient id="paint0_linear_226_4631" x1="12.8662" y1="70.8263" x2="34.6533" y2="43.4046" gradientUnits="userSpaceOnUse">
<stop stop-color="#FFB800"/>
<stop offset="0.715356" stop-color="#C2033D"/>
</linearGradient>
<linearGradient id="paint1_linear_226_4631" x1="59.4124" y1="9.38905" x2="11.7593" y2="46.2219" gradientUnits="userSpaceOnUse">
<stop stop-color="#13CE66"/>
<stop offset="0.157961" stop-color="#07C6A4"/>
<stop offset="0.40996" stop-color="#057FFF"/>
<stop offset="0.646225" stop-color="#6810DE"/>
</linearGradient>
<linearGradient id="paint2_linear_226_4631" x1="10.8691" y1="46.6584" x2="44.8911" y2="23.3103" gradientUnits="userSpaceOnUse">
<stop offset="0.234375" stop-color="#6810DE"/>
<stop offset="1" stop-color="#0587F4"/>
</linearGradient>
<linearGradient id="paint3_linear_226_4631" x1="53.7035" y1="31.8285" x2="15.9097" y2="51.7135" gradientUnits="userSpaceOnUse">
<stop offset="0.167624" stop-color="#FF05B9"/>
<stop offset="0.976698" stop-color="#EB252D"/>
</linearGradient>
</defs>
</svg>
