<svg width="756" height="124" viewBox="0 0 756 124" fill="none" xmlns="http://www.w3.org/2000/svg">
<path d="M0.0927734 0H755.001L755.093 50H752.246C743.033 50 734.042 52.828 726.487 58.1019L644.514 115.329C636.43 120.972 626.804 123.99 616.944 123.971L133.072 123.03C123.008 123.011 113.204 119.828 105.048 113.933L28.3932 58.529C20.7221 52.9845 11.498 50 2.03292 50H0.0927734V0Z" fill="#1F5754"/>
<path d="M6 -58.5L747 -60V-10H733.771C724.141 -10 714.765 -6.91103 707.022 -1.18709L631.595 54.567C623.308 60.6926 613.269 63.9885 602.964 63.9673L149.121 63.0333C138.61 63.0117 128.396 59.5402 120.048 53.1519L49.6329 -0.736051C41.7819 -6.74434 32.1708 -10 22.2846 -10H6V-58.5Z" fill="#062927"/>
</svg>
