<svg width="390" height="109" viewBox="0 0 390 109" fill="none" xmlns="http://www.w3.org/2000/svg">
<path d="M-123 15C-123 6.16343 -115.837 -1 -107 -1H514C522.837 -1 530 6.16345 530 15V58.3871C530 67.2237 522.837 74.3871 514 74.3871H364.202C360.846 74.3871 357.576 75.4422 354.853 77.4031L315.176 105.974C312.444 107.941 309.161 108.996 305.794 108.99L82.9514 108.543C79.5162 108.536 76.1744 107.424 73.4203 105.37L36.1161 77.5595C33.3532 75.4998 29.9992 74.3871 26.553 74.3871H-107C-115.837 74.3871 -123 67.2237 -123 58.3871V15Z" fill="#1F5754"/>
</svg>
