<svg width="171" height="30" viewBox="0 0 171 30" fill="none" xmlns="http://www.w3.org/2000/svg">
<g clip-path="url(#clip0_211_508)">
<path d="M37.752 29.184H29.7188L40.8236 1.07812H48.148L59.4891 29.184L51.574 29.0649L44.4858 10.4864L41.6505 18.5848H44.4858L46.1397 25.0158H39.0515L37.752 29.184Z" fill="white"/>
<path d="M164.579 20.6093C164.579 20.6093 170.249 18.4657 170.249 11.7965C170.249 5.12728 165.76 1.07812 161.743 1.07812C157.727 1.07812 145.913 1.07812 145.913 1.07812V29.184H153.001V11.4392V7.74732H156.664H159.499H159.853V7.77114C161.72 7.96169 163.161 9.53371 163.161 11.4392C163.161 13.3447 161.72 14.9405 159.853 15.1072V15.1311H159.499H156.664H156.073L161.98 29.184H170.722L164.579 20.6093Z" fill="white"/>
<path d="M115.969 1.07808V29.184H137.706V22.0384L123.411 22.1575V18.5847H134.989V11.9155H123.411V8.10455H137.824V1.19717V0.958984L115.969 1.07808Z" fill="white"/>
<path d="M72.7209 1.07812H65.1602V29.184H72.7209V1.07812Z" fill="white"/>
<path d="M0.986518 1.81636H1.55357C3.08935 1.81636 8.19284 1.69727 10.083 1.69727C21.6131 1.69727 26.2677 7.86627 26.2677 14.988C26.2677 22.4909 20.7389 28.7075 9.75224 28.7075C8.21647 28.7075 4.4361 28.636 1.67171 28.636H0.962891V1.81636H0.986518ZM7.57853 7.55663V22.8958C8.45274 22.9672 9.0198 22.9672 9.96489 22.9672C15.6591 22.9672 19.274 20.0852 19.274 14.988C19.274 10.0338 15.3519 7.43753 10.0121 7.43753C9.30333 7.43753 8.40549 7.43753 7.57853 7.55663Z" fill="white"/>
<path d="M9.75189 29.4227C9.09033 29.4227 8.05072 29.3989 6.82211 29.3989C5.14457 29.3751 3.25438 29.3513 1.69498 29.3513H0.277344V1.10249H1.55322C2.26204 1.10249 3.77418 1.07867 5.38084 1.05485C7.20014 1.03103 9.0667 0.983398 10.0827 0.983398C15.6823 0.983398 20.0298 2.38869 22.9832 5.15164C25.6058 7.60495 26.9762 10.9872 26.9762 14.9887C26.9762 19.014 25.4168 22.6583 22.6051 25.2069C19.5572 27.9698 15.1153 29.4227 9.75189 29.4227ZM1.69498 27.9222C3.27801 27.9222 5.16819 27.946 6.84573 27.9698C8.07435 27.9936 9.11395 27.9936 9.77552 27.9936C14.7845 27.9936 18.8957 26.6598 21.6837 24.135C24.2354 21.8246 25.5822 18.6568 25.5822 14.9887C25.5822 11.3921 24.3536 8.36715 22.0381 6.19966C19.3446 3.69871 15.3279 2.41251 10.1063 2.41251C9.11395 2.41251 7.2474 2.43633 5.42809 2.48397C3.91595 2.50778 2.47468 2.5316 1.69498 2.5316V27.9222ZM9.96454 23.6825C8.99582 23.6825 8.40513 23.6825 7.5073 23.611L6.86936 23.5634V6.96185L7.48367 6.86658C8.35788 6.74749 9.30297 6.74749 10.0118 6.74749C16.1549 6.74749 19.9825 9.91535 19.9825 15.0125C19.9825 20.3479 16.1313 23.6825 9.96454 23.6825ZM8.287 22.2057C8.8068 22.2295 9.30297 22.2295 9.96454 22.2295C15.4224 22.2295 18.5649 19.5857 18.5649 14.9649C18.5649 10.6775 15.3752 8.12896 10.0118 8.12896C9.49199 8.12896 8.87768 8.12896 8.287 8.1766V22.2057Z" fill="white"/>
<path d="M107.762 12.7491V29.1839H102.091V26.8021C97.3657 31.4705 89.7814 30.3987 84.9614 26.2066C82.4333 24.0153 80.803 20.8712 80.2596 17.4414C78.9601 9.20016 84.8669 1.43532 93.1128 0.577848C96.9877 0.172932 101.69 1.36386 106.699 6.41339L101.028 10.4625C101.028 10.4625 98.1927 6.88976 93.9398 7.60432C89.6869 8.31887 86.6153 12.368 87.7967 16.8936C88.978 21.4191 95.1211 25.4682 100.792 19.5136V18.799H93.9398V12.6062L107.762 12.7491Z" fill="white"/>
</g>
<defs>
<clipPath id="clip0_211_508">
<rect width="171" height="30" fill="white"/>
</clipPath>
</defs>
</svg>
